<svg width="1781" height="1005" xmlns="http://www.w3.org/2000/svg" xmlns:xlink="http://www.w3.org/1999/xlink" overflow="hidden"><defs><clipPath id="clip0"><rect x="88" y="955" width="1781" height="1005"/></clipPath><clipPath id="clip1"><rect x="89" y="955" width="1778" height="1002"/></clipPath><clipPath id="clip2"><rect x="465" y="1005" width="1355" height="650"/></clipPath><linearGradient x1="521.5" y1="1490" x2="521.5" y2="1652" gradientUnits="userSpaceOnUse" spreadMethod="reflect" id="fill3"><stop offset="0" stop-color="#6083CB"/><stop offset="0.5" stop-color="#3E70CA"/><stop offset="1" stop-color="#2E61BA"/></linearGradient><clipPath id="clip4"><rect x="465" y="1005" width="1355" height="650"/></clipPath><linearGradient x1="634.5" y1="1487" x2="634.5" y2="1652" gradientUnits="userSpaceOnUse" spreadMethod="reflect" id="fill5"><stop offset="0" stop-color="#6083CB"/><stop offset="0.5" stop-color="#3E70CA"/><stop offset="1" stop-color="#2E61BA"/></linearGradient><clipPath id="clip6"><rect x="465" y="1005" width="1355" height="650"/></clipPath><linearGradient x1="746.5" y1="1492" x2="746.5" y2="1652" gradientUnits="userSpaceOnUse" spreadMethod="reflect" id="fill7"><stop offset="0" stop-color="#6083CB"/><stop offset="0.5" stop-color="#3E70CA"/><stop offset="1" stop-color="#2E61BA"/></linearGradient><clipPath id="clip8"><rect x="465" y="1005" width="1355" height="650"/></clipPath><linearGradient x1="859.5" y1="1502" x2="859.5" y2="1652" gradientUnits="userSpaceOnUse" spreadMethod="reflect" id="fill9"><stop offset="0" stop-color="#6083CB"/><stop offset="0.5" stop-color="#3E70CA"/><stop offset="1" stop-color="#2E61BA"/></linearGradient><clipPath id="clip10"><rect x="465" y="1005" width="1355" height="650"/></clipPath><linearGradient x1="972.5" y1="1531" x2="972.5" y2="1652" gradientUnits="userSpaceOnUse" spreadMethod="reflect" id="fill11"><stop offset="0" stop-color="#6083CB"/><stop offset="0.5" stop-color="#3E70CA"/><stop offset="1" stop-color="#2E61BA"/></linearGradient><clipPath id="clip12"><rect x="465" y="1005" width="1355" height="650"/></clipPath><linearGradient x1="1084.5" y1="1517" x2="1084.5" y2="1652" gradientUnits="userSpaceOnUse" spreadMethod="reflect" id="fill13"><stop offset="0" stop-color="#6083CB"/><stop offset="0.5" stop-color="#3E70CA"/><stop offset="1" stop-color="#2E61BA"/></linearGradient><clipPath id="clip14"><rect x="465" y="1005" width="1355" height="650"/></clipPath><linearGradient x1="1197.5" y1="1502" x2="1197.5" y2="1652" gradientUnits="userSpaceOnUse" spreadMethod="reflect" id="fill15"><stop offset="0" stop-color="#6083CB"/><stop offset="0.5" stop-color="#3E70CA"/><stop offset="1" stop-color="#2E61BA"/></linearGradient><clipPath id="clip16"><rect x="465" y="1005" width="1355" height="650"/></clipPath><linearGradient x1="1309.5" y1="1539" x2="1309.5" y2="1652" gradientUnits="userSpaceOnUse" spreadMethod="reflect" id="fill17"><stop offset="0" stop-color="#6083CB"/><stop offset="0.5" stop-color="#3E70CA"/><stop offset="1" stop-color="#2E61BA"/></linearGradient><clipPath id="clip18"><rect x="465" y="1005" width="1355" height="650"/></clipPath><linearGradient x1="1422.5" y1="1543" x2="1422.5" y2="1652" gradientUnits="userSpaceOnUse" spreadMethod="reflect" id="fill19"><stop offset="0" stop-color="#6083CB"/><stop offset="0.5" stop-color="#3E70CA"/><stop offset="1" stop-color="#2E61BA"/></linearGradient><clipPath id="clip20"><rect x="465" y="1005" width="1355" height="650"/></clipPath><linearGradient x1="1535.5" y1="1546" x2="1535.5" y2="1652" gradientUnits="userSpaceOnUse" spreadMethod="reflect" id="fill21"><stop offset="0" stop-color="#6083CB"/><stop offset="0.5" stop-color="#3E70CA"/><stop offset="1" stop-color="#2E61BA"/></linearGradient><clipPath id="clip22"><rect x="465" y="1005" width="1355" height="650"/></clipPath><linearGradient x1="1647.5" y1="1507" x2="1647.5" y2="1652" gradientUnits="userSpaceOnUse" spreadMethod="reflect" id="fill23"><stop offset="0" stop-color="#6083CB"/><stop offset="0.5" stop-color="#3E70CA"/><stop offset="1" stop-color="#2E61BA"/></linearGradient><clipPath id="clip24"><rect x="465" y="1005" width="1355" height="650"/></clipPath><linearGradient x1="1760.5" y1="1512" x2="1760.5" y2="1652" gradientUnits="userSpaceOnUse" spreadMethod="reflect" id="fill25"><stop offset="0" stop-color="#6083CB"/><stop offset="0.5" stop-color="#3E70CA"/><stop offset="1" stop-color="#2E61BA"/></linearGradient><clipPath id="clip26"><rect x="465" y="1005" width="1355" height="650"/></clipPath><clipPath id="clip27"><rect x="465" y="1005" width="1355" height="650"/></clipPath><clipPath id="clip28"><rect x="465" y="1005" width="1355" height="650"/></clipPath><clipPath id="clip29"><rect x="465" y="1005" width="1355" height="650"/></clipPath><clipPath id="clip30"><rect x="465" y="1005" width="1355" height="650"/></clipPath><clipPath id="clip31"><rect x="465" y="1005" width="1355" height="650"/></clipPath><clipPath id="clip32"><rect x="465" y="1005" width="1355" height="650"/></clipPath><clipPath id="clip33"><rect x="465" y="1005" width="1355" height="650"/></clipPath><clipPath id="clip34"><rect x="465" y="1005" width="1355" height="650"/></clipPath><clipPath id="clip35"><rect x="465" y="1005" width="1355" height="650"/></clipPath><clipPath id="clip36"><rect x="465" y="1005" width="1355" height="650"/></clipPath><clipPath id="clip37"><rect x="465" y="1005" width="1355" height="650"/></clipPath><linearGradient x1="521.5" y1="1006" x2="521.5" y2="1490" gradientUnits="userSpaceOnUse" spreadMethod="reflect" id="fill38"><stop offset="0" stop-color="#F18C55"/><stop offset="0.5" stop-color="#F67B28"/><stop offset="1" stop-color="#E56B17"/></linearGradient><clipPath id="clip39"><rect x="465" y="1005" width="1355" height="650"/></clipPath><linearGradient x1="634.5" y1="1006" x2="634.5" y2="1487" gradientUnits="userSpaceOnUse" spreadMethod="reflect" id="fill40"><stop offset="0" stop-color="#F18C55"/><stop offset="0.5" stop-color="#F67B28"/><stop offset="1" stop-color="#E56B17"/></linearGradient><clipPath id="clip41"><rect x="465" y="1005" width="1355" height="650"/></clipPath><linearGradient x1="746.5" y1="1006" x2="746.5" y2="1492" gradientUnits="userSpaceOnUse" spreadMethod="reflect" id="fill42"><stop offset="0" stop-color="#F18C55"/><stop offset="0.5" stop-color="#F67B28"/><stop offset="1" stop-color="#E56B17"/></linearGradient><clipPath id="clip43"><rect x="465" y="1005" width="1355" height="650"/></clipPath><linearGradient x1="859.5" y1="1006" x2="859.5" y2="1502" gradientUnits="userSpaceOnUse" spreadMethod="reflect" id="fill44"><stop offset="0" stop-color="#F18C55"/><stop offset="0.5" stop-color="#F67B28"/><stop offset="1" stop-color="#E56B17"/></linearGradient><clipPath id="clip45"><rect x="465" y="1005" width="1355" height="650"/></clipPath><linearGradient x1="972.5" y1="1006" x2="972.5" y2="1531" gradientUnits="userSpaceOnUse" spreadMethod="reflect" id="fill46"><stop offset="0" stop-color="#F18C55"/><stop offset="0.5" stop-color="#F67B28"/><stop offset="1" stop-color="#E56B17"/></linearGradient><clipPath id="clip47"><rect x="465" y="1005" width="1355" height="650"/></clipPath><linearGradient x1="1084.5" y1="1006" x2="1084.5" y2="1517" gradientUnits="userSpaceOnUse" spreadMethod="reflect" id="fill48"><stop offset="0" stop-color="#F18C55"/><stop offset="0.5" stop-color="#F67B28"/><stop offset="1" stop-color="#E56B17"/></linearGradient><clipPath id="clip49"><rect x="465" y="1005" width="1355" height="650"/></clipPath><linearGradient x1="1197.5" y1="1006" x2="1197.5" y2="1502" gradientUnits="userSpaceOnUse" spreadMethod="reflect" id="fill50"><stop offset="0" stop-color="#F18C55"/><stop offset="0.5" stop-color="#F67B28"/><stop offset="1" stop-color="#E56B17"/></linearGradient><clipPath id="clip51"><rect x="465" y="1005" width="1355" height="650"/></clipPath><linearGradient x1="1309.5" y1="1006" x2="1309.5" y2="1539" gradientUnits="userSpaceOnUse" spreadMethod="reflect" id="fill52"><stop offset="0" stop-color="#F18C55"/><stop offset="0.5" stop-color="#F67B28"/><stop offset="1" stop-color="#E56B17"/></linearGradient><clipPath id="clip53"><rect x="465" y="1005" width="1355" height="650"/></clipPath><linearGradient x1="1422.5" y1="1006" x2="1422.5" y2="1543" gradientUnits="userSpaceOnUse" spreadMethod="reflect" id="fill54"><stop offset="0" stop-color="#F18C55"/><stop offset="0.5" stop-color="#F67B28"/><stop offset="1" stop-color="#E56B17"/></linearGradient><clipPath id="clip55"><rect x="465" y="1005" width="1355" height="650"/></clipPath><linearGradient x1="1535.5" y1="1006" x2="1535.5" y2="1546" gradientUnits="userSpaceOnUse" spreadMethod="reflect" id="fill56"><stop offset="0" stop-color="#F18C55"/><stop offset="0.5" stop-color="#F67B28"/><stop offset="1" stop-color="#E56B17"/></linearGradient><clipPath id="clip57"><rect x="465" y="1005" width="1355" height="650"/></clipPath><linearGradient x1="1647.5" y1="1006" x2="1647.5" y2="1507" gradientUnits="userSpaceOnUse" spreadMethod="reflect" id="fill58"><stop offset="0" stop-color="#F18C55"/><stop offset="0.5" stop-color="#F67B28"/><stop offset="1" stop-color="#E56B17"/></linearGradient><clipPath id="clip59"><rect x="465" y="1005" width="1355" height="650"/></clipPath><linearGradient x1="1760.5" y1="1006" x2="1760.5" y2="1512" gradientUnits="userSpaceOnUse" spreadMethod="reflect" id="fill60"><stop offset="0" stop-color="#F18C55"/><stop offset="0.5" stop-color="#F67B28"/><stop offset="1" stop-color="#E56B17"/></linearGradient><clipPath id="clip61"><rect x="465" y="1005" width="1355" height="650"/></clipPath><clipPath id="clip62"><rect x="465" y="1005" width="1355" height="650"/></clipPath><clipPath id="clip63"><rect x="465" y="1005" width="1355" height="650"/></clipPath><clipPath id="clip64"><rect x="465" y="1005" width="1355" height="650"/></clipPath><clipPath id="clip65"><rect x="465" y="1005" width="1355" height="650"/></clipPath><clipPath id="clip66"><rect x="465" y="1005" width="1355" height="650"/></clipPath><clipPath id="clip67"><rect x="465" y="1005" width="1355" height="650"/></clipPath><clipPath id="clip68"><rect x="465" y="1005" width="1355" height="650"/></clipPath><clipPath id="clip69"><rect x="465" y="1005" width="1355" height="650"/></clipPath><clipPath id="clip70"><rect x="465" y="1005" width="1355" height="650"/></clipPath><clipPath id="clip71"><rect x="465" y="1005" width="1355" height="650"/></clipPath><clipPath id="clip72"><rect x="89" y="955" width="1778" height="1002"/></clipPath><clipPath id="clip73"><rect x="89" y="955" width="1778" height="1002"/></clipPath><clipPath id="clip74"><rect x="89" y="955" width="1778" height="1002"/></clipPath><clipPath id="clip75"><rect x="89" y="955" width="1778" height="1002"/></clipPath><clipPath id="clip76"><rect x="89" y="955" width="1778" height="1002"/></clipPath><clipPath id="clip77"><rect x="89" y="955" width="1778" height="1002"/></clipPath><clipPath id="clip78"><rect x="89" y="955" width="1778" height="1002"/></clipPath><clipPath id="clip79"><rect x="89" y="955" width="1778" height="1002"/></clipPath><clipPath id="clip80"><rect x="89" y="955" width="1778" height="1002"/></clipPath><clipPath id="clip81"><rect x="89" y="955" width="1778" height="1002"/></clipPath><clipPath id="clip82"><rect x="89" y="955" width="1778" height="1002"/></clipPath><clipPath id="clip83"><rect x="89" y="955" width="1778" height="1002"/></clipPath><clipPath id="clip84"><rect x="89" y="955" width="1778" height="1002"/></clipPath><clipPath id="clip85"><rect x="89" y="955" width="1778" height="1002"/></clipPath><clipPath id="clip86"><rect x="89" y="955" width="1778" height="1002"/></clipPath><clipPath id="clip87"><rect x="89" y="955" width="1778" height="1002"/></clipPath><clipPath id="clip88"><rect x="89" y="955" width="1778" height="1002"/></clipPath><linearGradient x1="193" y1="1735" x2="193" y2="1757" gradientUnits="userSpaceOnUse" spreadMethod="reflect" id="fill89"><stop offset="0" stop-color="#F18C55"/><stop offset="0.5" stop-color="#F67B28"/><stop offset="1" stop-color="#E56B17"/></linearGradient><clipPath id="clip90"><rect x="89" y="955" width="1778" height="1002"/></clipPath><clipPath id="clip91"><rect x="89" y="955" width="1778" height="1002"/></clipPath><clipPath id="clip92"><rect x="89" y="955" width="1778" height="1002"/></clipPath><clipPath id="clip93"><rect x="89" y="955" width="1778" height="1002"/></clipPath><clipPath id="clip94"><rect x="89" y="955" width="1778" height="1002"/></clipPath><clipPath id="clip95"><rect x="89" y="955" width="1778" height="1002"/></clipPath><clipPath id="clip96"><rect x="89" y="955" width="1778" height="1002"/></clipPath><clipPath id="clip97"><rect x="89" y="955" width="1778" height="1002"/></clipPath><clipPath id="clip98"><rect x="89" y="955" width="1778" height="1002"/></clipPath><clipPath id="clip99"><rect x="89" y="955" width="1778" height="1002"/></clipPath><clipPath id="clip100"><rect x="89" y="955" width="1778" height="1002"/></clipPath><clipPath id="clip101"><rect x="89" y="955" width="1778" height="1002"/></clipPath><clipPath id="clip102"><rect x="89" y="955" width="1778" height="1002"/></clipPath><clipPath id="clip103"><rect x="89" y="955" width="1778" height="1002"/></clipPath><clipPath id="clip104"><rect x="89" y="955" width="1778" height="1002"/></clipPath><linearGradient x1="193" y1="1799" x2="193" y2="1822" gradientUnits="userSpaceOnUse" spreadMethod="reflect" id="fill105"><stop offset="0" stop-color="#6083CB"/><stop offset="0.5" stop-color="#3E70CA"/><stop offset="1" stop-color="#2E61BA"/></linearGradient><clipPath id="clip106"><rect x="89" y="955" width="1778" height="1002"/></clipPath><clipPath id="clip107"><rect x="89" y="955" width="1778" height="1002"/></clipPath><clipPath id="clip108"><rect x="89" y="955" width="1778" height="1002"/></clipPath><clipPath id="clip109"><rect x="89" y="955" width="1778" height="1002"/></clipPath><clipPath id="clip110"><rect x="89" y="955" width="1778" height="1002"/></clipPath><clipPath id="clip111"><rect x="89" y="955" width="1778" height="1002"/></clipPath><clipPath id="clip112"><rect x="89" y="955" width="1778" height="1002"/></clipPath><clipPath id="clip113"><rect x="89" y="955" width="1778" height="1002"/></clipPath><clipPath id="clip114"><rect x="89" y="955" width="1778" height="1002"/></clipPath><clipPath id="clip115"><rect x="89" y="955" width="1778" height="1002"/></clipPath><clipPath id="clip116"><rect x="89" y="955" width="1778" height="1002"/></clipPath><clipPath id="clip117"><rect x="89" y="955" width="1778" height="1002"/></clipPath><clipPath id="clip118"><rect x="89" y="955" width="1778" height="1002"/></clipPath><clipPath id="clip119"><rect x="89" y="955" width="1778" height="1002"/></clipPath><clipPath id="clip120"><rect x="89" y="955" width="1778" height="1002"/></clipPath><clipPath id="clip121"><rect x="89" y="955" width="1778" height="1002"/></clipPath><clipPath id="clip122"><rect x="89" y="955" width="1778" height="1002"/></clipPath><clipPath id="clip123"><rect x="89" y="955" width="1778" height="1002"/></clipPath><clipPath id="clip124"><rect x="89" y="955" width="1778" height="1002"/></clipPath><clipPath id="clip125"><rect x="89" y="955" width="1778" height="1002"/></clipPath><clipPath id="clip126"><rect x="89" y="955" width="1778" height="1002"/></clipPath><clipPath id="clip127"><rect x="89" y="955" width="1778" height="1002"/></clipPath><clipPath id="clip128"><rect x="89" y="955" width="1778" height="1002"/></clipPath><clipPath id="clip129"><rect x="89" y="955" width="1778" height="1002"/></clipPath><clipPath id="clip130"><rect x="89" y="955" width="1778" height="1002"/></clipPath><clipPath id="clip131"><rect x="89" y="955" width="1778" height="1002"/></clipPath></defs><g clip-path="url(#clip0)" transform="translate(-88 -955)"><rect x="89" y="956" width="1778" height="1002" fill="#FFFFFF"/><g clip-path="url(#clip1)"><path d="M465.5 1587.55 1816.5 1587.55M465.5 1522.55 1816.5 1522.55M465.5 1458.55 1816.5 1458.55M465.5 1393.55 1816.5 1393.55M465.5 1329.54 1816.5 1329.54M465.5 1264.54 1816.5 1264.54M465.5 1199.54 1816.5 1199.54M465.5 1135.54 1816.5 1135.54M465.5 1070.54 1816.5 1070.54M465.5 1005.5 1816.5 1005.5" stroke="#E0E5EB" stroke-width="3.4375" stroke-linejoin="round" stroke-miterlimit="10" fill="none"/></g><g clip-path="url(#clip2)"><rect x="499" y="1490" width="45.0001" height="162" fill="url(#fill3)"/></g><g clip-path="url(#clip4)"><rect x="612" y="1487" width="45.0001" height="165" fill="url(#fill5)"/></g><g clip-path="url(#clip6)"><rect x="724" y="1492" width="45.0001" height="160" fill="url(#fill7)"/></g><g clip-path="url(#clip8)"><rect x="837" y="1502" width="45.0001" height="150" fill="url(#fill9)"/></g><g clip-path="url(#clip10)"><rect x="950" y="1531" width="45.0001" height="121" fill="url(#fill11)"/></g><g clip-path="url(#clip12)"><rect x="1062" y="1517" width="45" height="135" fill="url(#fill13)"/></g><g clip-path="url(#clip14)"><rect x="1175" y="1502" width="45" height="150" fill="url(#fill15)"/></g><g clip-path="url(#clip16)"><rect x="1287" y="1539" width="45" height="113" fill="url(#fill17)"/></g><g clip-path="url(#clip18)"><rect x="1400" y="1543" width="45" height="109" fill="url(#fill19)"/></g><g clip-path="url(#clip20)"><rect x="1513" y="1546" width="45" height="106" fill="url(#fill21)"/></g><g clip-path="url(#clip22)"><rect x="1625" y="1507" width="45" height="145" fill="url(#fill23)"/></g><g clip-path="url(#clip24)"><rect x="1738" y="1512" width="45" height="140" fill="url(#fill25)"/></g><g clip-path="url(#clip26)"><path d="M0 0 67 3.0001" stroke="#8497B0" stroke-width="3.4375" stroke-linejoin="round" stroke-miterlimit="10" stroke-dasharray="13.75 10.3125" fill="none" fill-rule="evenodd" transform="matrix(-1 0 0 1 611.5 1486.5)"/></g><g clip-path="url(#clip27)"><path d="M724.5 1491.5 656.5 1486.5" stroke="#8497B0" stroke-width="3.4375" stroke-linejoin="round" stroke-miterlimit="10" stroke-dasharray="13.75 10.3125" fill="none" fill-rule="evenodd"/></g><g clip-path="url(#clip28)"><path d="M836.5 1501.5 769.5 1491.5" stroke="#8497B0" stroke-width="3.4375" stroke-linejoin="round" stroke-miterlimit="10" stroke-dasharray="13.75 10.3125" fill="none" fill-rule="evenodd"/></g><g clip-path="url(#clip29)"><path d="M949.5 1530.5 881.5 1501.5" stroke="#8497B0" stroke-width="3.4375" stroke-linejoin="round" stroke-miterlimit="10" stroke-dasharray="13.75 10.3125" fill="none" fill-rule="evenodd"/></g><g clip-path="url(#clip30)"><path d="M0 0 68.0001 12.9997" stroke="#8497B0" stroke-width="3.4375" stroke-linejoin="round" stroke-miterlimit="10" stroke-dasharray="13.75 10.3125" fill="none" fill-rule="evenodd" transform="matrix(-1 0 0 1 1062.5 1517.5)"/></g><g clip-path="url(#clip31)"><path d="M0 0 67 15.0001" stroke="#8497B0" stroke-width="3.4375" stroke-linejoin="round" stroke-miterlimit="10" stroke-dasharray="13.75 10.3125" fill="none" fill-rule="evenodd" transform="matrix(-1 0 0 1 1174.5 1502.5)"/></g><g clip-path="url(#clip32)"><path d="M1287.5 1538.5 1219.5 1502.5" stroke="#8497B0" stroke-width="3.4375" stroke-linejoin="round" stroke-miterlimit="10" stroke-dasharray="13.75 10.3125" fill="none" fill-rule="evenodd"/></g><g clip-path="url(#clip33)"><path d="M1399.5 1543.5 1332.5 1538.5" stroke="#8497B0" stroke-width="3.4375" stroke-linejoin="round" stroke-miterlimit="10" stroke-dasharray="13.75 10.3125" fill="none" fill-rule="evenodd"/></g><g clip-path="url(#clip34)"><path d="M1512.5 1545.5 1445.5 1543.5" stroke="#8497B0" stroke-width="3.4375" stroke-linejoin="round" stroke-miterlimit="10" stroke-dasharray="13.75 10.3125" fill="none" fill-rule="evenodd"/></g><g clip-path="url(#clip35)"><path d="M0 0 68.0001 38.9998" stroke="#8497B0" stroke-width="3.4375" stroke-linejoin="round" stroke-miterlimit="10" stroke-dasharray="13.75 10.3125" fill="none" fill-rule="evenodd" transform="matrix(-1 0 0 1 1625.5 1506.5)"/></g><g clip-path="url(#clip36)"><path d="M1737.5 1511.5 1670.5 1506.5" stroke="#8497B0" stroke-width="3.4375" stroke-linejoin="round" stroke-miterlimit="10" stroke-dasharray="13.75 10.3125" fill="none" fill-rule="evenodd"/></g><g clip-path="url(#clip37)"><rect x="499" y="1006" width="45.0001" height="484" fill="url(#fill38)"/></g><g clip-path="url(#clip39)"><rect x="612" y="1006" width="45.0001" height="481" fill="url(#fill40)"/></g><g clip-path="url(#clip41)"><rect x="724" y="1006" width="45.0001" height="486" fill="url(#fill42)"/></g><g clip-path="url(#clip43)"><rect x="837" y="1006" width="45.0001" height="496" fill="url(#fill44)"/></g><g clip-path="url(#clip45)"><rect x="950" y="1006" width="45.0001" height="525" fill="url(#fill46)"/></g><g clip-path="url(#clip47)"><rect x="1062" y="1006" width="45" height="511" fill="url(#fill48)"/></g><g clip-path="url(#clip49)"><rect x="1175" y="1006" width="45" height="496" fill="url(#fill50)"/></g><g clip-path="url(#clip51)"><rect x="1287" y="1006" width="45" height="533" fill="url(#fill52)"/></g><g clip-path="url(#clip53)"><rect x="1400" y="1006" width="45" height="537" fill="url(#fill54)"/></g><g clip-path="url(#clip55)"><rect x="1513" y="1006" width="45" height="540" fill="url(#fill56)"/></g><g clip-path="url(#clip57)"><rect x="1625" y="1006" width="45" height="501" fill="url(#fill58)"/></g><g clip-path="url(#clip59)"><rect x="1738" y="1006" width="45" height="506" fill="url(#fill60)"/></g><g clip-path="url(#clip61)"><path d="M0 0 67 0.000360892" stroke="#8497B0" stroke-width="3.4375" stroke-linejoin="round" stroke-miterlimit="10" stroke-dasharray="13.75 10.3125" fill="none" fill-rule="evenodd" transform="matrix(-1 0 0 1 611.5 1005.5)"/></g><g clip-path="url(#clip62)"><path d="M0 0 68.0001 0.000360892" stroke="#8497B0" stroke-width="3.4375" stroke-linejoin="round" stroke-miterlimit="10" stroke-dasharray="13.75 10.3125" fill="none" fill-rule="evenodd" transform="matrix(-1 0 0 1 724.5 1005.5)"/></g><g clip-path="url(#clip63)"><path d="M0 0 66.9997 0.000360892" stroke="#8497B0" stroke-width="3.4375" stroke-linejoin="round" stroke-miterlimit="10" stroke-dasharray="13.75 10.3125" fill="none" fill-rule="evenodd" transform="matrix(-1 0 0 1 836.5 1005.5)"/></g><g clip-path="url(#clip64)"><path d="M0 0 68.0001 0.000360892" stroke="#8497B0" stroke-width="3.4375" stroke-linejoin="round" stroke-miterlimit="10" stroke-dasharray="13.75 10.3125" fill="none" fill-rule="evenodd" transform="matrix(-1 0 0 1 949.5 1005.5)"/></g><g clip-path="url(#clip65)"><path d="M0 0 68.0001 0.000360892" stroke="#8497B0" stroke-width="3.4375" stroke-linejoin="round" stroke-miterlimit="10" stroke-dasharray="13.75 10.3125" fill="none" fill-rule="evenodd" transform="matrix(-1 0 0 1 1062.5 1005.5)"/></g><g clip-path="url(#clip66)"><path d="M0 0 67 0.000360892" stroke="#8497B0" stroke-width="3.4375" stroke-linejoin="round" stroke-miterlimit="10" stroke-dasharray="13.75 10.3125" fill="none" fill-rule="evenodd" transform="matrix(-1 0 0 1 1174.5 1005.5)"/></g><g clip-path="url(#clip67)"><path d="M0 0 67.9997 0.000360892" stroke="#8497B0" stroke-width="3.4375" stroke-linejoin="round" stroke-miterlimit="10" stroke-dasharray="13.75 10.3125" fill="none" fill-rule="evenodd" transform="matrix(-1 0 0 1 1287.5 1005.5)"/></g><g clip-path="url(#clip68)"><path d="M0 0 67 0.000360892" stroke="#8497B0" stroke-width="3.4375" stroke-linejoin="round" stroke-miterlimit="10" stroke-dasharray="13.75 10.3125" fill="none" fill-rule="evenodd" transform="matrix(-1 0 0 1 1399.5 1005.5)"/></g><g clip-path="url(#clip69)"><path d="M0 0 67 0.000360892" stroke="#8497B0" stroke-width="3.4375" stroke-linejoin="round" stroke-miterlimit="10" stroke-dasharray="13.75 10.3125" fill="none" fill-rule="evenodd" transform="matrix(-1 0 0 1 1512.5 1005.5)"/></g><g clip-path="url(#clip70)"><path d="M0 0 68.0001 0.000360892" stroke="#8497B0" stroke-width="3.4375" stroke-linejoin="round" stroke-miterlimit="10" stroke-dasharray="13.75 10.3125" fill="none" fill-rule="evenodd" transform="matrix(-1 0 0 1 1625.5 1005.5)"/></g><g clip-path="url(#clip71)"><path d="M0 0 67 0.000360892" stroke="#8497B0" stroke-width="3.4375" stroke-linejoin="round" stroke-miterlimit="10" stroke-dasharray="13.75 10.3125" fill="none" fill-rule="evenodd" transform="matrix(-1 0 0 1 1737.5 1005.5)"/></g><g clip-path="url(#clip72)"><path d="M465.5 1652.5 1816.5 1652.5" stroke="#E0E5EB" stroke-width="3.4375" stroke-linejoin="round" stroke-miterlimit="10" fill="none" fill-rule="evenodd"/></g><g clip-path="url(#clip73)"><path d="M465.5 1652.5 1816.5 1652.5" stroke="#E0E5EB" stroke-width="3.4375" stroke-linejoin="round" stroke-miterlimit="10" fill="none" fill-rule="evenodd"/></g><g clip-path="url(#clip74)"><path d="M465.5 1652.5 465.5 1714.5M577.519 1652.5 577.519 1714.5M690.523 1652.5 690.523 1714.5M803.527 1652.5 803.527 1714.5M915.53 1652.5 915.53 1714.5M1028.53 1652.5 1028.53 1714.5M1140.54 1652.5 1140.54 1714.5M1253.54 1652.5 1253.54 1714.5M1366.55 1652.5 1366.55 1714.5M1478.55 1652.5 1478.55 1714.5M1591.55 1652.5 1591.55 1714.5M1703.56 1652.5 1703.56 1714.5M1816.5 1652.5 1816.5 1714.5" stroke="#E0E5EB" stroke-width="3.4375" stroke-linejoin="round" stroke-miterlimit="10" fill="none"/></g><g clip-path="url(#clip75)"><text font-family="Bodoni MT,Bodoni MT_MSFontService,sans-serif" font-weight="400" font-size="41" transform="matrix(1 0 0 1 489.159 1694)">Jan</text></g><g clip-path="url(#clip76)"><text font-family="Bodoni MT,Bodoni MT_MSFontService,sans-serif" font-weight="400" font-size="41" transform="matrix(1 0 0 1 600.93 1694)">Feb</text></g><g clip-path="url(#clip77)"><text font-family="Bodoni MT,Bodoni MT_MSFontService,sans-serif" font-weight="400" font-size="41" transform="matrix(1 0 0 1 711.624 1694)">Mar</text></g><g clip-path="url(#clip78)"><text font-family="Bodoni MT,Bodoni MT_MSFontService,sans-serif" font-weight="400" font-size="41" transform="matrix(1 0 0 1 825.939 1694)">Apr</text></g><g clip-path="url(#clip79)"><text font-family="Bodoni MT,Bodoni MT_MSFontService,sans-serif" font-weight="400" font-size="41" transform="matrix(1 0 0 1 933.39 1694)">May</text></g><g clip-path="url(#clip80)"><text font-family="Bodoni MT,Bodoni MT_MSFontService,sans-serif" font-weight="400" font-size="41" transform="matrix(1 0 0 1 1051.12 1694)">Jun</text></g><g clip-path="url(#clip81)"><text font-family="Bodoni MT,Bodoni MT_MSFontService,sans-serif" font-weight="400" font-size="41" transform="matrix(1 0 0 1 1169.32 1694)">Jul</text></g><g clip-path="url(#clip82)"><text font-family="Bodoni MT,Bodoni MT_MSFontService,sans-serif" font-weight="400" font-size="41" transform="matrix(1 0 0 1 1274 1694)">Aug</text></g><g clip-path="url(#clip83)"><text font-family="Bodoni MT,Bodoni MT_MSFontService,sans-serif" font-weight="400" font-size="41" transform="matrix(1 0 0 1 1391.33 1694)">Sep</text></g><g clip-path="url(#clip84)"><text font-family="Bodoni MT,Bodoni MT_MSFontService,sans-serif" font-weight="400" font-size="41" transform="matrix(1 0 0 1 1503.97 1694)">Oct</text></g><g clip-path="url(#clip85)"><text font-family="Bodoni MT,Bodoni MT_MSFontService,sans-serif" font-weight="400" font-size="41" transform="matrix(1 0 0 1 1610.74 1694)">Nov</text></g><g clip-path="url(#clip86)"><text font-family="Bodoni MT,Bodoni MT_MSFontService,sans-serif" font-weight="400" font-size="41" transform="matrix(1 0 0 1 1727.04 1694)">Dec</text></g><g clip-path="url(#clip87)"><path d="M167.5 1714.5 1816.5 1714.5M167.5 1714.5 167.5 1779.5M465.515 1714.5 465.515 1779.5M465.515 1714.5 465.515 1779.5M577.519 1714.5 577.519 1779.5M577.519 1714.5 577.519 1779.5M690.523 1714.5 690.523 1779.5M690.523 1714.5 690.523 1779.5M803.526 1714.5 803.526 1779.5M803.526 1714.5 803.526 1779.5M915.53 1714.5 915.53 1779.5M915.53 1714.5 915.53 1779.5M1028.53 1714.5 1028.53 1779.5M1028.53 1714.5 1028.53 1779.5M1140.54 1714.5 1140.54 1779.5M1140.54 1714.5 1140.54 1779.5M1253.54 1714.5 1253.54 1779.5M1253.54 1714.5 1253.54 1779.5M1366.55 1714.5 1366.55 1779.5M1366.55 1714.5 1366.55 1779.5M1478.55 1714.5 1478.55 1779.5M1478.55 1714.5 1478.55 1779.5M1591.55 1714.5 1591.55 1779.5M1591.55 1714.5 1591.55 1779.5M1703.56 1714.5 1703.56 1779.5M1703.56 1714.5 1703.56 1779.5M1816.5 1714.5 1816.5 1779.5M1816.5 1714.5 1816.5 1779.5" stroke="#E0E5EB" stroke-width="3.4375" stroke-linejoin="round" stroke-miterlimit="10" fill="none"/></g><g clip-path="url(#clip88)"><rect x="182" y="1735" width="22" height="22" fill="url(#fill89)"/></g><g clip-path="url(#clip90)"><text font-family="Bodoni MT,Bodoni MT_MSFontService,sans-serif" font-weight="400" font-size="41" transform="matrix(1 0 0 1 213.61 1757)">Tinnitus YES</text></g><g clip-path="url(#clip91)"><text font-family="Bodoni MT,Bodoni MT_MSFontService,sans-serif" font-weight="400" font-size="41" transform="matrix(1 0 0 1 475.615 1758)">0.749</text></g><g clip-path="url(#clip92)"><text font-family="Bodoni MT,Bodoni MT_MSFontService,sans-serif" font-weight="400" font-size="41" transform="matrix(1 0 0 1 588.222 1758)">0.744</text></g><g clip-path="url(#clip93)"><text font-family="Bodoni MT,Bodoni MT_MSFontService,sans-serif" font-weight="400" font-size="41" transform="matrix(1 0 0 1 700.83 1758)">0.752</text></g><g clip-path="url(#clip94)"><text font-family="Bodoni MT,Bodoni MT_MSFontService,sans-serif" font-weight="400" font-size="41" transform="matrix(1 0 0 1 813.438 1758)">0.767</text></g><g clip-path="url(#clip95)"><text font-family="Bodoni MT,Bodoni MT_MSFontService,sans-serif" font-weight="400" font-size="41" transform="matrix(1 0 0 1 926.045 1758)">0.812</text></g><g clip-path="url(#clip96)"><text font-family="Bodoni MT,Bodoni MT_MSFontService,sans-serif" font-weight="400" font-size="41" transform="matrix(1 0 0 1 1038.65 1758)">0.792</text></g><g clip-path="url(#clip97)"><text font-family="Bodoni MT,Bodoni MT_MSFontService,sans-serif" font-weight="400" font-size="41" transform="matrix(1 0 0 1 1151.26 1758)">0.768</text></g><g clip-path="url(#clip98)"><text font-family="Bodoni MT,Bodoni MT_MSFontService,sans-serif" font-weight="400" font-size="41" transform="matrix(1 0 0 1 1263.87 1758)">0.825</text></g><g clip-path="url(#clip99)"><text font-family="Bodoni MT,Bodoni MT_MSFontService,sans-serif" font-weight="400" font-size="41" transform="matrix(1 0 0 1 1376.48 1758)">0.831</text></g><g clip-path="url(#clip100)"><text font-family="Bodoni MT,Bodoni MT_MSFontService,sans-serif" font-weight="400" font-size="41" transform="matrix(1 0 0 1 1489.08 1758)">0.835</text></g><g clip-path="url(#clip101)"><text font-family="Bodoni MT,Bodoni MT_MSFontService,sans-serif" font-weight="400" font-size="41" transform="matrix(1 0 0 1 1601.69 1758)">0.775</text></g><g clip-path="url(#clip102)"><text font-family="Bodoni MT,Bodoni MT_MSFontService,sans-serif" font-weight="400" font-size="41" transform="matrix(1 0 0 1 1714.3 1758)">0.783</text></g><g clip-path="url(#clip103)"><path d="M167.5 1779.5 1816.5 1779.5M167.5 1779.5 167.5 1844.5M167.5 1844.5 1816.5 1844.5M465.515 1779.5 465.515 1844.5M465.515 1779.5 465.515 1844.5M577.519 1779.5 577.519 1844.5M577.519 1779.5 577.519 1844.5M690.523 1779.5 690.523 1844.5M690.523 1779.5 690.523 1844.5M803.526 1779.5 803.526 1844.5M803.526 1779.5 803.526 1844.5M915.53 1779.5 915.53 1844.5M915.53 1779.5 915.53 1844.5M1028.53 1779.5 1028.53 1844.5M1028.53 1779.5 1028.53 1844.5M1140.54 1779.5 1140.54 1844.5M1140.54 1779.5 1140.54 1844.5M1253.54 1779.5 1253.54 1844.5M1253.54 1779.5 1253.54 1844.5M1366.55 1779.5 1366.55 1844.5M1366.55 1779.5 1366.55 1844.5M1478.55 1779.5 1478.55 1844.5M1478.55 1779.5 1478.55 1844.5M1591.55 1779.5 1591.55 1844.5M1591.55 1779.5 1591.55 1844.5M1703.56 1779.5 1703.56 1844.5M1703.56 1779.5 1703.56 1844.5M1816.5 1779.5 1816.5 1844.5M1816.5 1779.5 1816.5 1844.5" stroke="#E0E5EB" stroke-width="3.4375" stroke-linejoin="round" stroke-miterlimit="10" fill="none"/></g><g clip-path="url(#clip104)"><rect x="182" y="1799" width="22" height="23" fill="url(#fill105)"/></g><g clip-path="url(#clip106)"><text font-family="Bodoni MT,Bodoni MT_MSFontService,sans-serif" font-weight="400" font-size="41" transform="matrix(1 0 0 1 213.61 1822)">Tinnitus NO</text></g><g clip-path="url(#clip107)"><text font-family="Bodoni MT,Bodoni MT_MSFontService,sans-serif" font-weight="400" font-size="41" transform="matrix(1 0 0 1 475.615 1823)">0.251</text></g><g clip-path="url(#clip108)"><text font-family="Bodoni MT,Bodoni MT_MSFontService,sans-serif" font-weight="400" font-size="41" transform="matrix(1 0 0 1 588.222 1823)">0.256</text></g><g clip-path="url(#clip109)"><text font-family="Bodoni MT,Bodoni MT_MSFontService,sans-serif" font-weight="400" font-size="41" transform="matrix(1 0 0 1 700.83 1823)">0.248</text></g><g clip-path="url(#clip110)"><text font-family="Bodoni MT,Bodoni MT_MSFontService,sans-serif" font-weight="400" font-size="41" transform="matrix(1 0 0 1 813.438 1823)">0.233</text></g><g clip-path="url(#clip111)"><text font-family="Bodoni MT,Bodoni MT_MSFontService,sans-serif" font-weight="400" font-size="41" transform="matrix(1 0 0 1 926.045 1823)">0.188</text></g><g clip-path="url(#clip112)"><text font-family="Bodoni MT,Bodoni MT_MSFontService,sans-serif" font-weight="400" font-size="41" transform="matrix(1 0 0 1 1038.65 1823)">0.209</text></g><g clip-path="url(#clip113)"><text font-family="Bodoni MT,Bodoni MT_MSFontService,sans-serif" font-weight="400" font-size="41" transform="matrix(1 0 0 1 1151.26 1823)">0.232</text></g><g clip-path="url(#clip114)"><text font-family="Bodoni MT,Bodoni MT_MSFontService,sans-serif" font-weight="400" font-size="41" transform="matrix(1 0 0 1 1263.87 1823)">0.175</text></g><g clip-path="url(#clip115)"><text font-family="Bodoni MT,Bodoni MT_MSFontService,sans-serif" font-weight="400" font-size="41" transform="matrix(1 0 0 1 1376.48 1823)">0.169</text></g><g clip-path="url(#clip116)"><text font-family="Bodoni MT,Bodoni MT_MSFontService,sans-serif" font-weight="400" font-size="41" transform="matrix(1 0 0 1 1489.08 1823)">0.165</text></g><g clip-path="url(#clip117)"><text font-family="Bodoni MT,Bodoni MT_MSFontService,sans-serif" font-weight="400" font-size="41" transform="matrix(1 0 0 1 1601.69 1823)">0.225</text></g><g clip-path="url(#clip118)"><text font-family="Bodoni MT,Bodoni MT_MSFontService,sans-serif" font-weight="400" font-size="41" transform="matrix(1 0 0 1 1714.3 1823)">0.217</text></g><g clip-path="url(#clip119)"><text font-family="Bodoni MT,Bodoni MT_MSFontService,sans-serif" font-weight="400" font-size="41" transform="matrix(1 0 0 1 369.54 1663)">0%</text></g><g clip-path="url(#clip120)"><text font-family="Bodoni MT,Bodoni MT_MSFontService,sans-serif" font-weight="400" font-size="41" transform="matrix(1 0 0 1 349.328 1599)">10%</text></g><g clip-path="url(#clip121)"><text font-family="Bodoni MT,Bodoni MT_MSFontService,sans-serif" font-weight="400" font-size="41" transform="matrix(1 0 0 1 349.328 1534)">20%</text></g><g clip-path="url(#clip122)"><text font-family="Bodoni MT,Bodoni MT_MSFontService,sans-serif" font-weight="400" font-size="41" transform="matrix(1 0 0 1 349.328 1470)">30%</text></g><g clip-path="url(#clip123)"><text font-family="Bodoni MT,Bodoni MT_MSFontService,sans-serif" font-weight="400" font-size="41" transform="matrix(1 0 0 1 349.328 1405)">40%</text></g><g clip-path="url(#clip124)"><text font-family="Bodoni MT,Bodoni MT_MSFontService,sans-serif" font-weight="400" font-size="41" transform="matrix(1 0 0 1 349.328 1340)">50%</text></g><g clip-path="url(#clip125)"><text font-family="Bodoni MT,Bodoni MT_MSFontService,sans-serif" font-weight="400" font-size="41" transform="matrix(1 0 0 1 349.328 1276)">60%</text></g><g clip-path="url(#clip126)"><text font-family="Bodoni MT,Bodoni MT_MSFontService,sans-serif" font-weight="400" font-size="41" transform="matrix(1 0 0 1 349.328 1211)">70%</text></g><g clip-path="url(#clip127)"><text font-family="Bodoni MT,Bodoni MT_MSFontService,sans-serif" font-weight="400" font-size="41" transform="matrix(1 0 0 1 349.328 1146)">80%</text></g><g clip-path="url(#clip128)"><text font-family="Bodoni MT,Bodoni MT_MSFontService,sans-serif" font-weight="400" font-size="41" transform="matrix(1 0 0 1 349.328 1082)">90%</text></g><g clip-path="url(#clip129)"><text font-family="Bodoni MT,Bodoni MT_MSFontService,sans-serif" font-weight="400" font-size="41" transform="matrix(1 0 0 1 329.115 1017)">100%</text></g><g clip-path="url(#clip130)"><text font-family="Bodoni MT,Bodoni MT_MSFontService,sans-serif" font-weight="700" font-size="41" transform="matrix(6.12323e-17 -1 1 6.12323e-17 184.733 1493)">Tinnitus Occurence</text></g><g clip-path="url(#clip131)"><text font-family="Bodoni MT,Bodoni MT_MSFontService,sans-serif" font-weight="700" font-size="41" transform="matrix(1 0 0 1 1085.07 1889)">Month</text></g><rect x="89.4999" y="956.5" width="1778" height="1002" stroke="#E0E5EB" stroke-width="3.4375" stroke-linejoin="round" stroke-miterlimit="10" fill="none"/></g></svg>