<?xml version="1.0" encoding="utf-8" standalone="no"?>
<!DOCTYPE svg PUBLIC "-//W3C//DTD SVG 1.1//EN"
  "http://www.w3.org/Graphics/SVG/1.1/DTD/svg11.dtd">
<!-- Created with matplotlib (https://matplotlib.org/) -->
<svg height="360pt" version="1.1" viewBox="0 0 1800 360" width="1800pt" xmlns="http://www.w3.org/2000/svg" xmlns:xlink="http://www.w3.org/1999/xlink">
 <metadata>
  <rdf:RDF xmlns:cc="http://creativecommons.org/ns#" xmlns:dc="http://purl.org/dc/elements/1.1/" xmlns:rdf="http://www.w3.org/1999/02/22-rdf-syntax-ns#">
   <cc:Work>
    <dc:type rdf:resource="http://purl.org/dc/dcmitype/StillImage"/>
    <dc:date>2021-03-25T14:59:47.293286</dc:date>
    <dc:format>image/svg+xml</dc:format>
    <dc:creator>
     <cc:Agent>
      <dc:title>Matplotlib v3.3.4, https://matplotlib.org/</dc:title>
     </cc:Agent>
    </dc:creator>
   </cc:Work>
  </rdf:RDF>
 </metadata>
 <defs>
  <style type="text/css">*{stroke-linecap:butt;stroke-linejoin:round;}</style>
 </defs>
 <g id="figure_1">
  <g id="patch_1">
   <path d="M 0 360 
L 1800 360 
L 1800 0 
L 0 0 
z
" style="fill:none;"/>
  </g>
  <g id="axes_1">
   <g id="patch_2">
    <path d="M 62.22 305.78 
L 380.016 305.78 
L 380.016 50.92 
L 62.22 50.92 
z
" style="fill:#ffffff;"/>
   </g>
   <g id="PathCollection_1">
    <path clip-path="url(#pec66ee8b1f)" d="M 76.665273 299.715881 
C 78.129307 299.715881 79.533575 299.134214 80.568804 298.098986 
C 81.604032 297.063757 82.185699 295.659489 82.185699 294.195455 
C 82.185699 292.73142 81.604032 291.327152 80.568804 290.291923 
C 79.533575 289.256695 78.129307 288.675028 76.665273 288.675028 
C 75.201238 288.675028 73.79697 289.256695 72.761742 290.291923 
C 71.726513 291.327152 71.144846 292.73142 71.144846 294.195455 
C 71.144846 295.659489 71.726513 297.063757 72.761742 298.098986 
C 73.79697 299.134214 75.201238 299.715881 76.665273 299.715881 
z
" style="fill:#d295a5;stroke:#ffffff;stroke-width:0.774575;"/>
    <path clip-path="url(#pec66ee8b1f)" d="M 102.929405 290.627221 
C 104.393439 290.627221 105.797708 290.045555 106.832936 289.010326 
C 107.868165 287.975097 108.449832 286.570829 108.449832 285.106795 
C 108.449832 283.642761 107.868165 282.238492 106.832936 281.203264 
C 105.797708 280.168035 104.393439 279.586368 102.929405 279.586368 
C 101.465371 279.586368 100.061102 280.168035 99.025874 281.203264 
C 97.990645 282.238492 97.408978 283.642761 97.408978 285.106795 
C 97.408978 286.570829 97.990645 287.975097 99.025874 289.010326 
C 100.061102 290.045555 101.465371 290.627221 102.929405 290.627221 
z
" style="fill:#d295a5;stroke:#ffffff;stroke-width:0.774575;"/>
    <path clip-path="url(#pec66ee8b1f)" d="M 129.193537 251.636278 
C 129.958415 251.636278 130.692069 251.332389 131.23292 250.791538 
C 131.77377 250.250688 132.077659 249.517034 132.077659 248.752156 
C 132.077659 247.987278 131.77377 247.253624 131.23292 246.712774 
C 130.692069 246.171923 129.958415 245.868034 129.193537 245.868034 
C 128.428659 245.868034 127.695005 246.171923 127.154155 246.712774 
C 126.613304 247.253624 126.309415 247.987278 126.309415 248.752156 
C 126.309415 249.517034 126.613304 250.250688 127.154155 250.791538 
C 127.695005 251.332389 128.428659 251.636278 129.193537 251.636278 
z
" style="fill:#ebcac5;stroke:#ffffff;stroke-width:0.774575;"/>
    <path clip-path="url(#pec66ee8b1f)" d="M 155.457669 221.931512 
C 156.780944 221.931512 158.050199 221.405769 158.985895 220.470073 
C 159.921592 219.534377 160.447334 218.265122 160.447334 216.941847 
C 160.447334 215.618573 159.921592 214.349318 158.985895 213.413622 
C 158.050199 212.477925 156.780944 211.952183 155.457669 211.952183 
C 154.134395 211.952183 152.86514 212.477925 151.929444 213.413622 
C 150.993747 214.349318 150.468005 215.618573 150.468005 216.941847 
C 150.468005 218.265122 150.993747 219.534377 151.929444 220.470073 
C 152.86514 221.405769 154.134395 221.931512 155.457669 221.931512 
z
" style="fill:#daa2ac;stroke:#ffffff;stroke-width:0.774575;"/>
    <path clip-path="url(#pec66ee8b1f)" d="M 181.721802 183.224754 
C 183.626457 183.224754 185.45336 182.468027 186.800155 181.121232 
C 188.14695 179.774437 188.903677 177.947534 188.903677 176.042879 
C 188.903677 174.138223 188.14695 172.311321 186.800155 170.964526 
C 185.45336 169.617731 183.626457 168.861003 181.721802 168.861003 
C 179.817146 168.861003 177.990244 169.617731 176.643449 170.964526 
C 175.296654 172.311321 174.539926 174.138223 174.539926 176.042879 
C 174.539926 177.947534 175.296654 179.774437 176.643449 181.121232 
C 177.990244 182.468027 179.817146 183.224754 181.721802 183.224754 
z
" style="fill:#ab6990;stroke:#ffffff;stroke-width:0.774575;"/>
    <path clip-path="url(#pec66ee8b1f)" d="M 207.985934 155.473498 
C 210.002927 155.473498 211.93758 154.672138 213.363809 153.245909 
C 214.790038 151.81968 215.591398 149.885026 215.591398 147.868034 
C 215.591398 145.851041 214.790038 143.916388 213.363809 142.490158 
C 211.93758 141.063929 210.002927 140.26257 207.985934 140.26257 
C 205.968941 140.26257 204.034288 141.063929 202.608059 142.490158 
C 201.181829 143.916388 200.38047 145.851041 200.38047 147.868034 
C 200.38047 149.885026 201.181829 151.81968 202.608059 153.245909 
C 204.034288 154.672138 205.968941 155.473498 207.985934 155.473498 
z
" style="fill:#9d5d89;stroke:#ffffff;stroke-width:0.774575;"/>
    <path clip-path="url(#pec66ee8b1f)" d="M 234.250066 134.897076 
C 236.112878 134.897076 237.899644 134.156973 239.21685 132.839767 
C 240.534057 131.52256 241.27416 129.735794 241.27416 127.872982 
C 241.27416 126.010171 240.534057 124.223405 239.21685 122.906198 
C 237.899644 121.588992 236.112878 120.848889 234.250066 120.848889 
C 232.387255 120.848889 230.600488 121.588992 229.283282 122.906198 
C 227.966075 124.223405 227.225972 126.010171 227.225972 127.872982 
C 227.225972 129.735794 227.966075 131.52256 229.283282 132.839767 
C 230.600488 134.156973 232.387255 134.897076 234.250066 134.897076 
z
" style="fill:#b06d92;stroke:#ffffff;stroke-width:0.774575;"/>
    <path clip-path="url(#pec66ee8b1f)" d="M 260.514198 139.996744 
C 262.283253 139.996744 263.98009 139.293891 265.231001 138.042981 
C 266.481911 136.79207 267.184764 135.095233 267.184764 133.326178 
C 267.184764 131.557123 266.481911 129.860286 265.231001 128.609376 
C 263.98009 127.358465 262.283253 126.655612 260.514198 126.655612 
C 258.745144 126.655612 257.048307 127.358465 255.797396 128.609376 
C 254.546485 129.860286 253.843632 131.557123 253.843632 133.326178 
C 253.843632 135.095233 254.546485 136.79207 255.797396 138.042981 
C 257.048307 139.293891 258.745144 139.996744 260.514198 139.996744 
z
" style="fill:#bb7797;stroke:#ffffff;stroke-width:0.774575;"/>
    <path clip-path="url(#pec66ee8b1f)" d="M 286.778331 176.476787 
C 288.821677 176.476787 290.781608 175.664957 292.226472 174.220093 
C 293.671336 172.775229 294.483167 170.815297 294.483167 168.771951 
C 294.483167 166.728605 293.671336 164.768673 292.226472 163.323809 
C 290.781608 161.878945 288.821677 161.067115 286.778331 161.067115 
C 284.734984 161.067115 282.775053 161.878945 281.330189 163.323809 
C 279.885325 164.768673 279.073495 166.728605 279.073495 168.771951 
C 279.073495 170.815297 279.885325 172.775229 281.330189 174.220093 
C 282.775053 175.664957 284.734984 176.476787 286.778331 176.476787 
z
" style="fill:#995a88;stroke:#ffffff;stroke-width:0.774575;"/>
    <path clip-path="url(#pec66ee8b1f)" d="M 313.042463 213.174817 
C 314.69481 213.174817 316.279703 212.518333 317.448088 211.349947 
C 318.616474 210.181562 319.272958 208.596668 319.272958 206.944322 
C 319.272958 205.291975 318.616474 203.707082 317.448088 202.538696 
C 316.279703 201.37031 314.69481 200.713826 313.042463 200.713826 
C 311.390116 200.713826 309.805223 201.37031 308.636837 202.538696 
C 307.468452 203.707082 306.811967 205.291975 306.811967 206.944322 
C 306.811967 208.596668 307.468452 210.181562 308.636837 211.349947 
C 309.805223 212.518333 311.390116 213.174817 313.042463 213.174817 
z
" style="fill:#c4829c;stroke:#ffffff;stroke-width:0.774575;"/>
    <path clip-path="url(#pec66ee8b1f)" d="M 339.306595 261.756253 
C 340.586015 261.756253 341.813206 261.247934 342.717893 260.343247 
C 343.622579 259.438561 344.130898 258.21137 344.130898 256.93195 
C 344.130898 255.65253 343.622579 254.425339 342.717893 253.520652 
C 341.813206 252.615966 340.586015 252.107647 339.306595 252.107647 
C 338.027175 252.107647 336.799984 252.615966 335.895297 253.520652 
C 334.990611 254.425339 334.482292 255.65253 334.482292 256.93195 
C 334.482292 258.21137 334.990611 259.438561 335.895297 260.343247 
C 336.799984 261.247934 338.027175 261.756253 339.306595 261.756253 
z
" style="fill:#dca6ae;stroke:#ffffff;stroke-width:0.774575;"/>
    <path clip-path="url(#pec66ee8b1f)" d="M 365.570727 290.027597 
C 367.116773 290.027597 368.599706 289.413347 369.692925 288.320127 
C 370.786145 287.226907 371.400396 285.743975 371.400396 284.197929 
C 371.400396 282.651883 370.786145 281.16895 369.692925 280.075731 
C 368.599706 278.982511 367.116773 278.36826 365.570727 278.36826 
C 364.024681 278.36826 362.541749 278.982511 361.448529 280.075731 
C 360.355309 281.16895 359.741059 282.651883 359.741059 284.197929 
C 359.741059 285.743975 360.355309 287.226907 361.448529 288.320127 
C 362.541749 289.413347 364.024681 290.027597 365.570727 290.027597 
z
" style="fill:#cc8da1;stroke:#ffffff;stroke-width:0.774575;"/>
   </g>
   <g id="PathCollection_2"/>
   <g id="PathCollection_3"/>
   <g id="PathCollection_4"/>
   <g id="PathCollection_5"/>
   <g id="PathCollection_6"/>
   <g id="PathCollection_7"/>
   <g id="matplotlib.axis_1">
    <g id="xtick_1">
     <g id="line2d_1">
      <defs>
       <path d="M 0 0 
L 0 4.8 
" id="me2e271804b" style="stroke:#000000;"/>
      </defs>
      <g>
       <use style="stroke:#000000;" x="76.665273" xlink:href="#me2e271804b" y="305.78"/>
      </g>
     </g>
     <g id="text_1">
      <!-- 1 -->
      <g transform="translate(69.666523 330.796563)scale(0.22 -0.22)">
       <defs>
        <path d="M 12.40625 8.296875 
L 28.515625 8.296875 
L 28.515625 63.921875 
L 10.984375 60.40625 
L 10.984375 69.390625 
L 28.421875 72.90625 
L 38.28125 72.90625 
L 38.28125 8.296875 
L 54.390625 8.296875 
L 54.390625 0 
L 12.40625 0 
z
" id="DejaVuSans-49"/>
       </defs>
       <use xlink:href="#DejaVuSans-49"/>
      </g>
     </g>
    </g>
    <g id="xtick_2">
     <g id="line2d_2">
      <g>
       <use style="stroke:#000000;" x="129.193537" xlink:href="#me2e271804b" y="305.78"/>
      </g>
     </g>
     <g id="text_2">
      <!-- 3 -->
      <g transform="translate(122.194787 330.796563)scale(0.22 -0.22)">
       <defs>
        <path d="M 40.578125 39.3125 
Q 47.65625 37.796875 51.625 33 
Q 55.609375 28.21875 55.609375 21.1875 
Q 55.609375 10.40625 48.1875 4.484375 
Q 40.765625 -1.421875 27.09375 -1.421875 
Q 22.515625 -1.421875 17.65625 -0.515625 
Q 12.796875 0.390625 7.625 2.203125 
L 7.625 11.71875 
Q 11.71875 9.328125 16.59375 8.109375 
Q 21.484375 6.890625 26.8125 6.890625 
Q 36.078125 6.890625 40.9375 10.546875 
Q 45.796875 14.203125 45.796875 21.1875 
Q 45.796875 27.640625 41.28125 31.265625 
Q 36.765625 34.90625 28.71875 34.90625 
L 20.21875 34.90625 
L 20.21875 43.015625 
L 29.109375 43.015625 
Q 36.375 43.015625 40.234375 45.921875 
Q 44.09375 48.828125 44.09375 54.296875 
Q 44.09375 59.90625 40.109375 62.90625 
Q 36.140625 65.921875 28.71875 65.921875 
Q 24.65625 65.921875 20.015625 65.03125 
Q 15.375 64.15625 9.8125 62.3125 
L 9.8125 71.09375 
Q 15.4375 72.65625 20.34375 73.4375 
Q 25.25 74.21875 29.59375 74.21875 
Q 40.828125 74.21875 47.359375 69.109375 
Q 53.90625 64.015625 53.90625 55.328125 
Q 53.90625 49.265625 50.4375 45.09375 
Q 46.96875 40.921875 40.578125 39.3125 
z
" id="DejaVuSans-51"/>
       </defs>
       <use xlink:href="#DejaVuSans-51"/>
      </g>
     </g>
    </g>
    <g id="xtick_3">
     <g id="line2d_3">
      <g>
       <use style="stroke:#000000;" x="181.721802" xlink:href="#me2e271804b" y="305.78"/>
      </g>
     </g>
     <g id="text_3">
      <!-- 5 -->
      <g transform="translate(174.723052 330.796563)scale(0.22 -0.22)">
       <defs>
        <path d="M 10.796875 72.90625 
L 49.515625 72.90625 
L 49.515625 64.59375 
L 19.828125 64.59375 
L 19.828125 46.734375 
Q 21.96875 47.46875 24.109375 47.828125 
Q 26.265625 48.1875 28.421875 48.1875 
Q 40.625 48.1875 47.75 41.5 
Q 54.890625 34.8125 54.890625 23.390625 
Q 54.890625 11.625 47.5625 5.09375 
Q 40.234375 -1.421875 26.90625 -1.421875 
Q 22.3125 -1.421875 17.546875 -0.640625 
Q 12.796875 0.140625 7.71875 1.703125 
L 7.71875 11.625 
Q 12.109375 9.234375 16.796875 8.0625 
Q 21.484375 6.890625 26.703125 6.890625 
Q 35.15625 6.890625 40.078125 11.328125 
Q 45.015625 15.765625 45.015625 23.390625 
Q 45.015625 31 40.078125 35.4375 
Q 35.15625 39.890625 26.703125 39.890625 
Q 22.75 39.890625 18.8125 39.015625 
Q 14.890625 38.140625 10.796875 36.28125 
z
" id="DejaVuSans-53"/>
       </defs>
       <use xlink:href="#DejaVuSans-53"/>
      </g>
     </g>
    </g>
    <g id="xtick_4">
     <g id="line2d_4">
      <g>
       <use style="stroke:#000000;" x="234.250066" xlink:href="#me2e271804b" y="305.78"/>
      </g>
     </g>
     <g id="text_4">
      <!-- 7 -->
      <g transform="translate(227.251316 330.796563)scale(0.22 -0.22)">
       <defs>
        <path d="M 8.203125 72.90625 
L 55.078125 72.90625 
L 55.078125 68.703125 
L 28.609375 0 
L 18.3125 0 
L 43.21875 64.59375 
L 8.203125 64.59375 
z
" id="DejaVuSans-55"/>
       </defs>
       <use xlink:href="#DejaVuSans-55"/>
      </g>
     </g>
    </g>
    <g id="xtick_5">
     <g id="line2d_5">
      <g>
       <use style="stroke:#000000;" x="286.778331" xlink:href="#me2e271804b" y="305.78"/>
      </g>
     </g>
     <g id="text_5">
      <!-- 9 -->
      <g transform="translate(279.779581 330.796563)scale(0.22 -0.22)">
       <defs>
        <path d="M 10.984375 1.515625 
L 10.984375 10.5 
Q 14.703125 8.734375 18.5 7.8125 
Q 22.3125 6.890625 25.984375 6.890625 
Q 35.75 6.890625 40.890625 13.453125 
Q 46.046875 20.015625 46.78125 33.40625 
Q 43.953125 29.203125 39.59375 26.953125 
Q 35.25 24.703125 29.984375 24.703125 
Q 19.046875 24.703125 12.671875 31.3125 
Q 6.296875 37.9375 6.296875 49.421875 
Q 6.296875 60.640625 12.9375 67.421875 
Q 19.578125 74.21875 30.609375 74.21875 
Q 43.265625 74.21875 49.921875 64.515625 
Q 56.59375 54.828125 56.59375 36.375 
Q 56.59375 19.140625 48.40625 8.859375 
Q 40.234375 -1.421875 26.421875 -1.421875 
Q 22.703125 -1.421875 18.890625 -0.6875 
Q 15.09375 0.046875 10.984375 1.515625 
z
M 30.609375 32.421875 
Q 37.25 32.421875 41.125 36.953125 
Q 45.015625 41.5 45.015625 49.421875 
Q 45.015625 57.28125 41.125 61.84375 
Q 37.25 66.40625 30.609375 66.40625 
Q 23.96875 66.40625 20.09375 61.84375 
Q 16.21875 57.28125 16.21875 49.421875 
Q 16.21875 41.5 20.09375 36.953125 
Q 23.96875 32.421875 30.609375 32.421875 
z
" id="DejaVuSans-57"/>
       </defs>
       <use xlink:href="#DejaVuSans-57"/>
      </g>
     </g>
    </g>
    <g id="xtick_6">
     <g id="line2d_6">
      <g>
       <use style="stroke:#000000;" x="339.306595" xlink:href="#me2e271804b" y="305.78"/>
      </g>
     </g>
     <g id="text_6">
      <!-- 11 -->
      <g transform="translate(325.309095 330.796563)scale(0.22 -0.22)">
       <use xlink:href="#DejaVuSans-49"/>
       <use x="63.623047" xlink:href="#DejaVuSans-49"/>
      </g>
     </g>
    </g>
    <g id="text_7">
     <!-- month -->
     <g transform="translate(182.172375 357.608125)scale(0.24 -0.24)">
      <defs>
       <path d="M 52 44.1875 
Q 55.375 50.25 60.0625 53.125 
Q 64.75 56 71.09375 56 
Q 79.640625 56 84.28125 50.015625 
Q 88.921875 44.046875 88.921875 33.015625 
L 88.921875 0 
L 79.890625 0 
L 79.890625 32.71875 
Q 79.890625 40.578125 77.09375 44.375 
Q 74.3125 48.1875 68.609375 48.1875 
Q 61.625 48.1875 57.5625 43.546875 
Q 53.515625 38.921875 53.515625 30.90625 
L 53.515625 0 
L 44.484375 0 
L 44.484375 32.71875 
Q 44.484375 40.625 41.703125 44.40625 
Q 38.921875 48.1875 33.109375 48.1875 
Q 26.21875 48.1875 22.15625 43.53125 
Q 18.109375 38.875 18.109375 30.90625 
L 18.109375 0 
L 9.078125 0 
L 9.078125 54.6875 
L 18.109375 54.6875 
L 18.109375 46.1875 
Q 21.1875 51.21875 25.484375 53.609375 
Q 29.78125 56 35.6875 56 
Q 41.65625 56 45.828125 52.96875 
Q 50 49.953125 52 44.1875 
z
" id="DejaVuSans-109"/>
       <path d="M 30.609375 48.390625 
Q 23.390625 48.390625 19.1875 42.75 
Q 14.984375 37.109375 14.984375 27.296875 
Q 14.984375 17.484375 19.15625 11.84375 
Q 23.34375 6.203125 30.609375 6.203125 
Q 37.796875 6.203125 41.984375 11.859375 
Q 46.1875 17.53125 46.1875 27.296875 
Q 46.1875 37.015625 41.984375 42.703125 
Q 37.796875 48.390625 30.609375 48.390625 
z
M 30.609375 56 
Q 42.328125 56 49.015625 48.375 
Q 55.71875 40.765625 55.71875 27.296875 
Q 55.71875 13.875 49.015625 6.21875 
Q 42.328125 -1.421875 30.609375 -1.421875 
Q 18.84375 -1.421875 12.171875 6.21875 
Q 5.515625 13.875 5.515625 27.296875 
Q 5.515625 40.765625 12.171875 48.375 
Q 18.84375 56 30.609375 56 
z
" id="DejaVuSans-111"/>
       <path d="M 54.890625 33.015625 
L 54.890625 0 
L 45.90625 0 
L 45.90625 32.71875 
Q 45.90625 40.484375 42.875 44.328125 
Q 39.84375 48.1875 33.796875 48.1875 
Q 26.515625 48.1875 22.3125 43.546875 
Q 18.109375 38.921875 18.109375 30.90625 
L 18.109375 0 
L 9.078125 0 
L 9.078125 54.6875 
L 18.109375 54.6875 
L 18.109375 46.1875 
Q 21.34375 51.125 25.703125 53.5625 
Q 30.078125 56 35.796875 56 
Q 45.21875 56 50.046875 50.171875 
Q 54.890625 44.34375 54.890625 33.015625 
z
" id="DejaVuSans-110"/>
       <path d="M 18.3125 70.21875 
L 18.3125 54.6875 
L 36.8125 54.6875 
L 36.8125 47.703125 
L 18.3125 47.703125 
L 18.3125 18.015625 
Q 18.3125 11.328125 20.140625 9.421875 
Q 21.96875 7.515625 27.59375 7.515625 
L 36.8125 7.515625 
L 36.8125 0 
L 27.59375 0 
Q 17.1875 0 13.234375 3.875 
Q 9.28125 7.765625 9.28125 18.015625 
L 9.28125 47.703125 
L 2.6875 47.703125 
L 2.6875 54.6875 
L 9.28125 54.6875 
L 9.28125 70.21875 
z
" id="DejaVuSans-116"/>
       <path d="M 54.890625 33.015625 
L 54.890625 0 
L 45.90625 0 
L 45.90625 32.71875 
Q 45.90625 40.484375 42.875 44.328125 
Q 39.84375 48.1875 33.796875 48.1875 
Q 26.515625 48.1875 22.3125 43.546875 
Q 18.109375 38.921875 18.109375 30.90625 
L 18.109375 0 
L 9.078125 0 
L 9.078125 75.984375 
L 18.109375 75.984375 
L 18.109375 46.1875 
Q 21.34375 51.125 25.703125 53.5625 
Q 30.078125 56 35.796875 56 
Q 45.21875 56 50.046875 50.171875 
Q 54.890625 44.34375 54.890625 33.015625 
z
" id="DejaVuSans-104"/>
      </defs>
      <use xlink:href="#DejaVuSans-109"/>
      <use x="97.412109" xlink:href="#DejaVuSans-111"/>
      <use x="158.59375" xlink:href="#DejaVuSans-110"/>
      <use x="221.972656" xlink:href="#DejaVuSans-116"/>
      <use x="261.181641" xlink:href="#DejaVuSans-104"/>
     </g>
    </g>
   </g>
   <g id="matplotlib.axis_2">
    <g id="ytick_1">
     <g id="line2d_7">
      <defs>
       <path d="M 0 0 
L -4.8 0 
" id="m7e32258319" style="stroke:#000000;"/>
      </defs>
      <g>
       <use style="stroke:#000000;" x="62.22" xlink:href="#m7e32258319" y="296.922052"/>
      </g>
     </g>
     <g id="text_8">
      <!-- 0 -->
      <g transform="translate(39.9225 305.280334)scale(0.22 -0.22)">
       <defs>
        <path d="M 31.78125 66.40625 
Q 24.171875 66.40625 20.328125 58.90625 
Q 16.5 51.421875 16.5 36.375 
Q 16.5 21.390625 20.328125 13.890625 
Q 24.171875 6.390625 31.78125 6.390625 
Q 39.453125 6.390625 43.28125 13.890625 
Q 47.125 21.390625 47.125 36.375 
Q 47.125 51.421875 43.28125 58.90625 
Q 39.453125 66.40625 31.78125 66.40625 
z
M 31.78125 74.21875 
Q 44.046875 74.21875 50.515625 64.515625 
Q 56.984375 54.828125 56.984375 36.375 
Q 56.984375 17.96875 50.515625 8.265625 
Q 44.046875 -1.421875 31.78125 -1.421875 
Q 19.53125 -1.421875 13.0625 8.265625 
Q 6.59375 17.96875 6.59375 36.375 
Q 6.59375 54.828125 13.0625 64.515625 
Q 19.53125 74.21875 31.78125 74.21875 
z
" id="DejaVuSans-48"/>
       </defs>
       <use xlink:href="#DejaVuSans-48"/>
      </g>
     </g>
    </g>
    <g id="ytick_2">
     <g id="line2d_8">
      <g>
       <use style="stroke:#000000;" x="62.22" xlink:href="#m7e32258319" y="206.035456"/>
      </g>
     </g>
     <g id="text_9">
      <!-- 10 -->
      <g transform="translate(25.925 214.393737)scale(0.22 -0.22)">
       <use xlink:href="#DejaVuSans-49"/>
       <use x="63.623047" xlink:href="#DejaVuSans-48"/>
      </g>
     </g>
    </g>
    <g id="ytick_3">
     <g id="line2d_9">
      <g>
       <use style="stroke:#000000;" x="62.22" xlink:href="#m7e32258319" y="115.148859"/>
      </g>
     </g>
     <g id="text_10">
      <!-- 20 -->
      <g transform="translate(25.925 123.50714)scale(0.22 -0.22)">
       <defs>
        <path d="M 19.1875 8.296875 
L 53.609375 8.296875 
L 53.609375 0 
L 7.328125 0 
L 7.328125 8.296875 
Q 12.9375 14.109375 22.625 23.890625 
Q 32.328125 33.6875 34.8125 36.53125 
Q 39.546875 41.84375 41.421875 45.53125 
Q 43.3125 49.21875 43.3125 52.78125 
Q 43.3125 58.59375 39.234375 62.25 
Q 35.15625 65.921875 28.609375 65.921875 
Q 23.96875 65.921875 18.8125 64.3125 
Q 13.671875 62.703125 7.8125 59.421875 
L 7.8125 69.390625 
Q 13.765625 71.78125 18.9375 73 
Q 24.125 74.21875 28.421875 74.21875 
Q 39.75 74.21875 46.484375 68.546875 
Q 53.21875 62.890625 53.21875 53.421875 
Q 53.21875 48.921875 51.53125 44.890625 
Q 49.859375 40.875 45.40625 35.40625 
Q 44.1875 33.984375 37.640625 27.21875 
Q 31.109375 20.453125 19.1875 8.296875 
z
" id="DejaVuSans-50"/>
       </defs>
       <use xlink:href="#DejaVuSans-50"/>
       <use x="63.623047" xlink:href="#DejaVuSans-48"/>
      </g>
     </g>
    </g>
    <g id="text_11">
     <!-- temp -->
     <g transform="translate(16.93375 209.745)rotate(-90)scale(0.24 -0.24)">
      <defs>
       <path d="M 56.203125 29.59375 
L 56.203125 25.203125 
L 14.890625 25.203125 
Q 15.484375 15.921875 20.484375 11.0625 
Q 25.484375 6.203125 34.421875 6.203125 
Q 39.59375 6.203125 44.453125 7.46875 
Q 49.3125 8.734375 54.109375 11.28125 
L 54.109375 2.78125 
Q 49.265625 0.734375 44.1875 -0.34375 
Q 39.109375 -1.421875 33.890625 -1.421875 
Q 20.796875 -1.421875 13.15625 6.1875 
Q 5.515625 13.8125 5.515625 26.8125 
Q 5.515625 40.234375 12.765625 48.109375 
Q 20.015625 56 32.328125 56 
Q 43.359375 56 49.78125 48.890625 
Q 56.203125 41.796875 56.203125 29.59375 
z
M 47.21875 32.234375 
Q 47.125 39.59375 43.09375 43.984375 
Q 39.0625 48.390625 32.421875 48.390625 
Q 24.90625 48.390625 20.390625 44.140625 
Q 15.875 39.890625 15.1875 32.171875 
z
" id="DejaVuSans-101"/>
       <path d="M 18.109375 8.203125 
L 18.109375 -20.796875 
L 9.078125 -20.796875 
L 9.078125 54.6875 
L 18.109375 54.6875 
L 18.109375 46.390625 
Q 20.953125 51.265625 25.265625 53.625 
Q 29.59375 56 35.59375 56 
Q 45.5625 56 51.78125 48.09375 
Q 58.015625 40.1875 58.015625 27.296875 
Q 58.015625 14.40625 51.78125 6.484375 
Q 45.5625 -1.421875 35.59375 -1.421875 
Q 29.59375 -1.421875 25.265625 0.953125 
Q 20.953125 3.328125 18.109375 8.203125 
z
M 48.6875 27.296875 
Q 48.6875 37.203125 44.609375 42.84375 
Q 40.53125 48.484375 33.40625 48.484375 
Q 26.265625 48.484375 22.1875 42.84375 
Q 18.109375 37.203125 18.109375 27.296875 
Q 18.109375 17.390625 22.1875 11.75 
Q 26.265625 6.109375 33.40625 6.109375 
Q 40.53125 6.109375 44.609375 11.75 
Q 48.6875 17.390625 48.6875 27.296875 
z
" id="DejaVuSans-112"/>
      </defs>
      <use xlink:href="#DejaVuSans-116"/>
      <use x="39.208984" xlink:href="#DejaVuSans-101"/>
      <use x="100.732422" xlink:href="#DejaVuSans-109"/>
      <use x="198.144531" xlink:href="#DejaVuSans-112"/>
     </g>
    </g>
   </g>
   <g id="patch_3">
    <path d="M 62.22 305.78 
L 62.22 50.92 
" style="fill:none;stroke:#000000;stroke-linecap:square;stroke-linejoin:miter;"/>
   </g>
   <g id="patch_4">
    <path d="M 62.22 305.78 
L 380.016 305.78 
" style="fill:none;stroke:#000000;stroke-linecap:square;stroke-linejoin:miter;"/>
   </g>
   <g id="text_12">
    <!-- country = CH -->
    <g transform="translate(140.1405 44.92)scale(0.24 -0.24)">
     <defs>
      <path d="M 48.78125 52.59375 
L 48.78125 44.1875 
Q 44.96875 46.296875 41.140625 47.34375 
Q 37.3125 48.390625 33.40625 48.390625 
Q 24.65625 48.390625 19.8125 42.84375 
Q 14.984375 37.3125 14.984375 27.296875 
Q 14.984375 17.28125 19.8125 11.734375 
Q 24.65625 6.203125 33.40625 6.203125 
Q 37.3125 6.203125 41.140625 7.25 
Q 44.96875 8.296875 48.78125 10.40625 
L 48.78125 2.09375 
Q 45.015625 0.34375 40.984375 -0.53125 
Q 36.96875 -1.421875 32.421875 -1.421875 
Q 20.0625 -1.421875 12.78125 6.34375 
Q 5.515625 14.109375 5.515625 27.296875 
Q 5.515625 40.671875 12.859375 48.328125 
Q 20.21875 56 33.015625 56 
Q 37.15625 56 41.109375 55.140625 
Q 45.0625 54.296875 48.78125 52.59375 
z
" id="DejaVuSans-99"/>
      <path d="M 8.5 21.578125 
L 8.5 54.6875 
L 17.484375 54.6875 
L 17.484375 21.921875 
Q 17.484375 14.15625 20.5 10.265625 
Q 23.53125 6.390625 29.59375 6.390625 
Q 36.859375 6.390625 41.078125 11.03125 
Q 45.3125 15.671875 45.3125 23.6875 
L 45.3125 54.6875 
L 54.296875 54.6875 
L 54.296875 0 
L 45.3125 0 
L 45.3125 8.40625 
Q 42.046875 3.421875 37.71875 1 
Q 33.40625 -1.421875 27.6875 -1.421875 
Q 18.265625 -1.421875 13.375 4.4375 
Q 8.5 10.296875 8.5 21.578125 
z
M 31.109375 56 
z
" id="DejaVuSans-117"/>
      <path d="M 41.109375 46.296875 
Q 39.59375 47.171875 37.8125 47.578125 
Q 36.03125 48 33.890625 48 
Q 26.265625 48 22.1875 43.046875 
Q 18.109375 38.09375 18.109375 28.8125 
L 18.109375 0 
L 9.078125 0 
L 9.078125 54.6875 
L 18.109375 54.6875 
L 18.109375 46.1875 
Q 20.953125 51.171875 25.484375 53.578125 
Q 30.03125 56 36.53125 56 
Q 37.453125 56 38.578125 55.875 
Q 39.703125 55.765625 41.0625 55.515625 
z
" id="DejaVuSans-114"/>
      <path d="M 32.171875 -5.078125 
Q 28.375 -14.84375 24.75 -17.8125 
Q 21.140625 -20.796875 15.09375 -20.796875 
L 7.90625 -20.796875 
L 7.90625 -13.28125 
L 13.1875 -13.28125 
Q 16.890625 -13.28125 18.9375 -11.515625 
Q 21 -9.765625 23.484375 -3.21875 
L 25.09375 0.875 
L 2.984375 54.6875 
L 12.5 54.6875 
L 29.59375 11.921875 
L 46.6875 54.6875 
L 56.203125 54.6875 
z
" id="DejaVuSans-121"/>
      <path id="DejaVuSans-32"/>
      <path d="M 10.59375 45.40625 
L 73.1875 45.40625 
L 73.1875 37.203125 
L 10.59375 37.203125 
z
M 10.59375 25.484375 
L 73.1875 25.484375 
L 73.1875 17.1875 
L 10.59375 17.1875 
z
" id="DejaVuSans-61"/>
      <path d="M 64.40625 67.28125 
L 64.40625 56.890625 
Q 59.421875 61.53125 53.78125 63.8125 
Q 48.140625 66.109375 41.796875 66.109375 
Q 29.296875 66.109375 22.65625 58.46875 
Q 16.015625 50.828125 16.015625 36.375 
Q 16.015625 21.96875 22.65625 14.328125 
Q 29.296875 6.6875 41.796875 6.6875 
Q 48.140625 6.6875 53.78125 8.984375 
Q 59.421875 11.28125 64.40625 15.921875 
L 64.40625 5.609375 
Q 59.234375 2.09375 53.4375 0.328125 
Q 47.65625 -1.421875 41.21875 -1.421875 
Q 24.65625 -1.421875 15.125 8.703125 
Q 5.609375 18.84375 5.609375 36.375 
Q 5.609375 53.953125 15.125 64.078125 
Q 24.65625 74.21875 41.21875 74.21875 
Q 47.75 74.21875 53.53125 72.484375 
Q 59.328125 70.75 64.40625 67.28125 
z
" id="DejaVuSans-67"/>
      <path d="M 9.8125 72.90625 
L 19.671875 72.90625 
L 19.671875 43.015625 
L 55.515625 43.015625 
L 55.515625 72.90625 
L 65.375 72.90625 
L 65.375 0 
L 55.515625 0 
L 55.515625 34.71875 
L 19.671875 34.71875 
L 19.671875 0 
L 9.8125 0 
z
" id="DejaVuSans-72"/>
     </defs>
     <use xlink:href="#DejaVuSans-99"/>
     <use x="54.980469" xlink:href="#DejaVuSans-111"/>
     <use x="116.162109" xlink:href="#DejaVuSans-117"/>
     <use x="179.541016" xlink:href="#DejaVuSans-110"/>
     <use x="242.919922" xlink:href="#DejaVuSans-116"/>
     <use x="282.128906" xlink:href="#DejaVuSans-114"/>
     <use x="323.242188" xlink:href="#DejaVuSans-121"/>
     <use x="382.421875" xlink:href="#DejaVuSans-32"/>
     <use x="414.208984" xlink:href="#DejaVuSans-61"/>
     <use x="497.998047" xlink:href="#DejaVuSans-32"/>
     <use x="529.785156" xlink:href="#DejaVuSans-67"/>
     <use x="599.609375" xlink:href="#DejaVuSans-72"/>
    </g>
   </g>
  </g>
  <g id="axes_2">
   <g id="patch_5">
    <path d="M 410.736 305.78 
L 728.532 305.78 
L 728.532 50.92 
L 410.736 50.92 
z
" style="fill:#ffffff;"/>
   </g>
   <g id="PathCollection_8">
    <path clip-path="url(#p52e92da977)" d="M 425.181273 294.289887 
C 427.134589 294.289887 429.008166 293.513826 430.389369 292.132623 
C 431.770572 290.75142 432.546633 288.877843 432.546633 286.924527 
C 432.546633 284.97121 431.770572 283.097634 430.389369 281.716431 
C 429.008166 280.335227 427.134589 279.559166 425.181273 279.559166 
C 423.227956 279.559166 421.35438 280.335227 419.973176 281.716431 
C 418.591973 283.097634 417.815912 284.97121 417.815912 286.924527 
C 417.815912 288.877843 418.591973 290.75142 419.973176 292.132623 
C 421.35438 293.513826 423.227956 294.289887 425.181273 294.289887 
z
" style="fill:#a5648d;stroke:#ffffff;stroke-width:1.127553;"/>
    <path clip-path="url(#p52e92da977)" d="M 451.445405 282.511301 
C 453.28793 282.511301 455.055237 281.779258 456.358099 280.476396 
C 457.660961 279.173535 458.393004 277.406227 458.393004 275.563702 
C 458.393004 273.721177 457.660961 271.95387 456.358099 270.651008 
C 455.055237 269.348146 453.28793 268.616103 451.445405 268.616103 
C 449.60288 268.616103 447.835572 269.348146 446.532711 270.651008 
C 445.229849 271.95387 444.497806 273.721177 444.497806 275.563702 
C 444.497806 277.406227 445.229849 279.173535 446.532711 280.476396 
C 447.835572 281.779258 449.60288 282.511301 451.445405 282.511301 
z
" style="fill:#b37093;stroke:#ffffff;stroke-width:1.127553;"/>
    <path clip-path="url(#p52e92da977)" d="M 477.709537 252.110751 
C 479.6849 252.110751 481.579624 251.325931 482.976416 249.929138 
C 484.373209 248.532346 485.158029 246.637622 485.158029 244.662259 
C 485.158029 242.686896 484.373209 240.792173 482.976416 239.39538 
C 481.579624 237.998587 479.6849 237.213767 477.709537 237.213767 
C 475.734174 237.213767 473.839451 237.998587 472.442658 239.39538 
C 471.045865 240.792173 470.261045 242.686896 470.261045 244.662259 
C 470.261045 246.637622 471.045865 248.532346 472.442658 249.929138 
C 473.839451 251.325931 475.734174 252.110751 477.709537 252.110751 
z
" style="fill:#a3628c;stroke:#ffffff;stroke-width:1.127553;"/>
    <path clip-path="url(#p52e92da977)" d="M 503.973669 211.115668 
C 505.923543 211.115668 507.793817 210.340976 509.172586 208.962207 
C 510.551354 207.583438 511.326047 205.713164 511.326047 203.763291 
C 511.326047 201.813417 510.551354 199.943143 509.172586 198.564375 
C 507.793817 197.185606 505.923543 196.410913 503.973669 196.410913 
C 502.023796 196.410913 500.153522 197.185606 498.774753 198.564375 
C 497.395985 199.943143 496.621292 201.813417 496.621292 203.763291 
C 496.621292 205.713164 497.395985 207.583438 498.774753 208.962207 
C 500.153522 210.340976 502.023796 211.115668 503.973669 211.115668 
z
" style="fill:#a5648d;stroke:#ffffff;stroke-width:1.127553;"/>
    <path clip-path="url(#p52e92da977)" d="M 530.237802 170.626989 
C 532.296485 170.626989 534.271127 169.809065 535.726836 168.353356 
C 537.182545 166.897647 538.000468 164.923005 538.000468 162.864322 
C 538.000468 160.805639 537.182545 158.830997 535.726836 157.375288 
C 534.271127 155.919579 532.296485 155.101656 530.237802 155.101656 
C 528.179118 155.101656 526.204476 155.919579 524.748767 157.375288 
C 523.293059 158.830997 522.475135 160.805639 522.475135 162.864322 
C 522.475135 164.923005 523.293059 166.897647 524.748767 168.353356 
C 526.204476 169.809065 528.179118 170.626989 530.237802 170.626989 
z
" style="fill:#985987;stroke:#ffffff;stroke-width:1.127553;"/>
    <path clip-path="url(#p52e92da977)" d="M 556.501934 142.280202 
C 558.515018 142.280202 560.445922 141.480395 561.869387 140.05693 
C 563.292852 138.633465 564.092658 136.702561 564.092658 134.689477 
C 564.092658 132.676393 563.292852 130.745489 561.869387 129.322024 
C 560.445922 127.898559 558.515018 127.098753 556.501934 127.098753 
C 554.48885 127.098753 552.557946 127.898559 551.134481 129.322024 
C 549.711016 130.745489 548.911209 132.676393 548.911209 134.689477 
C 548.911209 136.702561 549.711016 138.633465 551.134481 140.05693 
C 552.557946 141.480395 554.48885 142.280202 556.501934 142.280202 
z
" style="fill:#9e5e8a;stroke:#ffffff;stroke-width:1.127553;"/>
    <path clip-path="url(#p52e92da977)" d="M 582.766066 120.798037 
C 584.625797 120.798037 586.409608 120.059159 587.724636 118.74413 
C 589.039665 117.429102 589.778544 115.645291 589.778544 113.78556 
C 589.778544 111.925829 589.039665 110.142018 587.724636 108.82699 
C 586.409608 107.511961 584.625797 106.773082 582.766066 106.773082 
C 580.906335 106.773082 579.122524 107.511961 577.807496 108.82699 
C 576.492467 110.142018 575.753589 111.925829 575.753589 113.78556 
C 575.753589 115.645291 576.492467 117.429102 577.807496 118.74413 
C 579.122524 120.059159 580.906335 120.798037 582.766066 120.798037 
z
" style="fill:#b06d92;stroke:#ffffff;stroke-width:1.127553;"/>
    <path clip-path="url(#p52e92da977)" d="M 609.030198 126.677373 
C 611.12346 126.677373 613.131269 125.845712 614.611428 124.365552 
C 616.091587 122.885393 616.923249 120.877584 616.923249 118.784323 
C 616.923249 116.691061 616.091587 114.683253 614.611428 113.203093 
C 613.131269 111.722934 611.12346 110.891272 609.030198 110.891272 
C 606.936937 110.891272 604.929128 111.722934 603.448969 113.203093 
C 601.968809 114.683253 601.137148 116.691061 601.137148 118.784323 
C 601.137148 120.877584 601.968809 122.885393 603.448969 124.365552 
C 604.929128 125.845712 606.936937 126.677373 609.030198 126.677373 
z
" style="fill:#925684;stroke:#ffffff;stroke-width:1.127553;"/>
    <path clip-path="url(#p52e92da977)" d="M 635.294331 166.46527 
C 637.454483 166.46527 639.526453 165.607032 641.053912 164.079573 
C 642.58137 162.552115 643.439608 160.480145 643.439608 158.319992 
C 643.439608 156.159839 642.58137 154.08787 641.053912 152.560411 
C 639.526453 151.032952 637.454483 150.174715 635.294331 150.174715 
C 633.134178 150.174715 631.062208 151.032952 629.534749 152.560411 
C 628.007291 154.08787 627.149053 156.159839 627.149053 158.319992 
C 627.149053 160.480145 628.007291 162.552115 629.534749 164.079573 
C 631.062208 165.607032 633.134178 166.46527 635.294331 166.46527 
z
" style="fill:#884f7f;stroke:#ffffff;stroke-width:1.127553;"/>
    <path clip-path="url(#p52e92da977)" d="M 661.558463 210.185971 
C 663.743846 210.185971 665.840015 209.317709 667.385314 207.77241 
C 668.930613 206.227111 669.798875 204.130942 669.798875 201.945559 
C 669.798875 199.760176 668.930613 197.664007 667.385314 196.118708 
C 665.840015 194.573409 663.743846 193.705147 661.558463 193.705147 
C 659.37308 193.705147 657.276911 194.573409 655.731612 196.118708 
C 654.186313 197.664007 653.318051 199.760176 653.318051 201.945559 
C 653.318051 204.130942 654.186313 206.227111 655.731612 207.77241 
C 657.276911 209.317709 659.37308 210.185971 661.558463 210.185971 
z
" style="fill:#834c7d;stroke:#ffffff;stroke-width:1.127553;"/>
    <path clip-path="url(#p52e92da977)" d="M 687.822595 252.251451 
C 689.955789 252.251451 692.0019 251.403924 693.510296 249.895528 
C 695.018692 248.387132 695.866219 246.34102 695.866219 244.207826 
C 695.866219 242.074632 695.018692 240.028521 693.510296 238.520125 
C 692.0019 237.011729 689.955789 236.164202 687.822595 236.164202 
C 685.689401 236.164202 683.64329 237.011729 682.134894 238.520125 
C 680.626498 240.028521 679.778971 242.074632 679.778971 244.207826 
C 679.778971 246.34102 680.626498 248.387132 682.134894 249.895528 
C 683.64329 251.403924 685.689401 252.251451 687.822595 252.251451 
z
" style="fill:#8d5282;stroke:#ffffff;stroke-width:1.127553;"/>
    <path clip-path="url(#p52e92da977)" d="M 714.086727 288.377588 
C 716.400356 288.377588 718.619536 287.458373 720.255519 285.822391 
C 721.891501 284.186408 722.810716 281.967228 722.810716 279.653599 
C 722.810716 277.33997 721.891501 275.12079 720.255519 273.484808 
C 718.619536 271.848825 716.400356 270.92961 714.086727 270.92961 
C 711.773098 270.92961 709.553918 271.848825 707.917936 273.484808 
C 706.281953 275.12079 705.362739 277.33997 705.362739 279.653599 
C 705.362739 281.967228 706.281953 284.186408 707.917936 285.822391 
C 709.553918 287.458373 711.773098 288.377588 714.086727 288.377588 
z
" style="fill:#6e4071;stroke:#ffffff;stroke-width:1.127553;"/>
   </g>
   <g id="matplotlib.axis_3">
    <g id="xtick_7">
     <g id="line2d_10">
      <g>
       <use style="stroke:#000000;" x="425.181273" xlink:href="#me2e271804b" y="305.78"/>
      </g>
     </g>
     <g id="text_13">
      <!-- 1 -->
      <g transform="translate(418.182523 330.796563)scale(0.22 -0.22)">
       <use xlink:href="#DejaVuSans-49"/>
      </g>
     </g>
    </g>
    <g id="xtick_8">
     <g id="line2d_11">
      <g>
       <use style="stroke:#000000;" x="477.709537" xlink:href="#me2e271804b" y="305.78"/>
      </g>
     </g>
     <g id="text_14">
      <!-- 3 -->
      <g transform="translate(470.710787 330.796563)scale(0.22 -0.22)">
       <use xlink:href="#DejaVuSans-51"/>
      </g>
     </g>
    </g>
    <g id="xtick_9">
     <g id="line2d_12">
      <g>
       <use style="stroke:#000000;" x="530.237802" xlink:href="#me2e271804b" y="305.78"/>
      </g>
     </g>
     <g id="text_15">
      <!-- 5 -->
      <g transform="translate(523.239052 330.796563)scale(0.22 -0.22)">
       <use xlink:href="#DejaVuSans-53"/>
      </g>
     </g>
    </g>
    <g id="xtick_10">
     <g id="line2d_13">
      <g>
       <use style="stroke:#000000;" x="582.766066" xlink:href="#me2e271804b" y="305.78"/>
      </g>
     </g>
     <g id="text_16">
      <!-- 7 -->
      <g transform="translate(575.767316 330.796563)scale(0.22 -0.22)">
       <use xlink:href="#DejaVuSans-55"/>
      </g>
     </g>
    </g>
    <g id="xtick_11">
     <g id="line2d_14">
      <g>
       <use style="stroke:#000000;" x="635.294331" xlink:href="#me2e271804b" y="305.78"/>
      </g>
     </g>
     <g id="text_17">
      <!-- 9 -->
      <g transform="translate(628.295581 330.796563)scale(0.22 -0.22)">
       <use xlink:href="#DejaVuSans-57"/>
      </g>
     </g>
    </g>
    <g id="xtick_12">
     <g id="line2d_15">
      <g>
       <use style="stroke:#000000;" x="687.822595" xlink:href="#me2e271804b" y="305.78"/>
      </g>
     </g>
     <g id="text_18">
      <!-- 11 -->
      <g transform="translate(673.825095 330.796563)scale(0.22 -0.22)">
       <use xlink:href="#DejaVuSans-49"/>
       <use x="63.623047" xlink:href="#DejaVuSans-49"/>
      </g>
     </g>
    </g>
    <g id="text_19">
     <!-- month -->
     <g transform="translate(530.688375 357.608125)scale(0.24 -0.24)">
      <use xlink:href="#DejaVuSans-109"/>
      <use x="97.412109" xlink:href="#DejaVuSans-111"/>
      <use x="158.59375" xlink:href="#DejaVuSans-110"/>
      <use x="221.972656" xlink:href="#DejaVuSans-116"/>
      <use x="261.181641" xlink:href="#DejaVuSans-104"/>
     </g>
    </g>
   </g>
   <g id="matplotlib.axis_4">
    <g id="ytick_4">
     <g id="line2d_16">
      <g>
       <use style="stroke:#000000;" x="410.736" xlink:href="#m7e32258319" y="296.922052"/>
      </g>
     </g>
    </g>
    <g id="ytick_5">
     <g id="line2d_17">
      <g>
       <use style="stroke:#000000;" x="410.736" xlink:href="#m7e32258319" y="206.035456"/>
      </g>
     </g>
    </g>
    <g id="ytick_6">
     <g id="line2d_18">
      <g>
       <use style="stroke:#000000;" x="410.736" xlink:href="#m7e32258319" y="115.148859"/>
      </g>
     </g>
    </g>
   </g>
   <g id="patch_6">
    <path d="M 410.736 305.78 
L 410.736 50.92 
" style="fill:none;stroke:#000000;stroke-linecap:square;stroke-linejoin:miter;"/>
   </g>
   <g id="patch_7">
    <path d="M 410.736 305.78 
L 728.532 305.78 
" style="fill:none;stroke:#000000;stroke-linecap:square;stroke-linejoin:miter;"/>
   </g>
   <g id="text_20">
    <!-- country = DE -->
    <g transform="translate(489.23775 44.92)scale(0.24 -0.24)">
     <defs>
      <path d="M 19.671875 64.796875 
L 19.671875 8.109375 
L 31.59375 8.109375 
Q 46.6875 8.109375 53.6875 14.9375 
Q 60.6875 21.78125 60.6875 36.53125 
Q 60.6875 51.171875 53.6875 57.984375 
Q 46.6875 64.796875 31.59375 64.796875 
z
M 9.8125 72.90625 
L 30.078125 72.90625 
Q 51.265625 72.90625 61.171875 64.09375 
Q 71.09375 55.28125 71.09375 36.53125 
Q 71.09375 17.671875 61.125 8.828125 
Q 51.171875 0 30.078125 0 
L 9.8125 0 
z
" id="DejaVuSans-68"/>
      <path d="M 9.8125 72.90625 
L 55.90625 72.90625 
L 55.90625 64.59375 
L 19.671875 64.59375 
L 19.671875 43.015625 
L 54.390625 43.015625 
L 54.390625 34.71875 
L 19.671875 34.71875 
L 19.671875 8.296875 
L 56.78125 8.296875 
L 56.78125 0 
L 9.8125 0 
z
" id="DejaVuSans-69"/>
     </defs>
     <use xlink:href="#DejaVuSans-99"/>
     <use x="54.980469" xlink:href="#DejaVuSans-111"/>
     <use x="116.162109" xlink:href="#DejaVuSans-117"/>
     <use x="179.541016" xlink:href="#DejaVuSans-110"/>
     <use x="242.919922" xlink:href="#DejaVuSans-116"/>
     <use x="282.128906" xlink:href="#DejaVuSans-114"/>
     <use x="323.242188" xlink:href="#DejaVuSans-121"/>
     <use x="382.421875" xlink:href="#DejaVuSans-32"/>
     <use x="414.208984" xlink:href="#DejaVuSans-61"/>
     <use x="497.998047" xlink:href="#DejaVuSans-32"/>
     <use x="529.785156" xlink:href="#DejaVuSans-68"/>
     <use x="606.787109" xlink:href="#DejaVuSans-69"/>
    </g>
   </g>
  </g>
  <g id="axes_3">
   <g id="patch_8">
    <path d="M 759.252 305.78 
L 1077.048 305.78 
L 1077.048 50.92 
L 759.252 50.92 
z
" style="fill:#ffffff;"/>
   </g>
   <g id="PathCollection_9">
    <path clip-path="url(#pe437c1a2bb)" d="M 773.697273 264.915073 
C 775.452871 264.915073 777.1368 264.217567 778.378195 262.976172 
C 779.619591 261.734776 780.317097 260.050847 780.317097 258.295249 
C 780.317097 256.539651 779.619591 254.855721 778.378195 253.614326 
C 777.1368 252.372931 775.452871 251.675424 773.697273 251.675424 
C 771.941675 251.675424 770.257745 252.372931 769.01635 253.614326 
C 767.774955 254.855721 767.077448 256.539651 767.077448 258.295249 
C 767.077448 260.050847 767.774955 261.734776 769.01635 262.976172 
C 770.257745 264.217567 771.941675 264.915073 773.697273 264.915073 
z
" style="fill:#bc7897;stroke:#ffffff;stroke-width:0.737422;"/>
    <path clip-path="url(#pe437c1a2bb)" d="M 799.961405 262.374327 
C 801.645774 262.374327 803.261383 261.70512 804.452412 260.514091 
C 805.643441 259.323062 806.312648 257.707453 806.312648 256.023084 
C 806.312648 254.338714 805.643441 252.723106 804.452412 251.532077 
C 803.261383 250.341048 801.645774 249.671841 799.961405 249.671841 
C 798.277036 249.671841 796.661427 250.341048 795.470398 251.532077 
C 794.279369 252.723106 793.610162 254.338714 793.610162 256.023084 
C 793.610162 257.707453 794.279369 259.323062 795.470398 260.514091 
C 796.661427 261.70512 798.277036 262.374327 799.961405 262.374327 
z
" style="fill:#c27f9a;stroke:#ffffff;stroke-width:0.737422;"/>
    <path clip-path="url(#pe437c1a2bb)" d="M 826.225537 241.780174 
C 827.389472 241.780174 828.505891 241.317738 829.328917 240.494712 
C 830.151944 239.671686 830.61438 238.555266 830.61438 237.391332 
C 830.61438 236.227397 830.151944 235.110977 829.328917 234.287951 
C 828.505891 233.464925 827.389472 233.002489 826.225537 233.002489 
C 825.061603 233.002489 823.945183 233.464925 823.122157 234.287951 
C 822.299131 235.110977 821.836695 236.227397 821.836695 237.391332 
C 821.836695 238.555266 822.299131 239.671686 823.122157 240.494712 
C 823.945183 241.317738 825.061603 241.780174 826.225537 241.780174 
z
" style="fill:#e0afb3;stroke:#ffffff;stroke-width:0.737422;"/>
    <path clip-path="url(#pe437c1a2bb)" d="M 852.489669 227.380851 
C 854.293989 227.380851 856.024652 226.663987 857.300499 225.388141 
C 858.576346 224.112294 859.29321 222.381631 859.29321 220.577311 
C 859.29321 218.772991 858.576346 217.042329 857.300499 215.766482 
C 856.024652 214.490635 854.293989 213.773771 852.489669 213.773771 
C 850.685349 213.773771 848.954687 214.490635 847.67884 215.766482 
C 846.402993 217.042329 845.686129 218.772991 845.686129 220.577311 
C 845.686129 222.381631 846.402993 224.112294 847.67884 225.388141 
C 848.954687 226.663987 850.685349 227.380851 852.489669 227.380851 
z
" style="fill:#b67395;stroke:#ffffff;stroke-width:0.737422;"/>
    <path clip-path="url(#pe437c1a2bb)" d="M 878.753802 202.232718 
C 881.240298 202.232718 883.625288 201.244822 885.383507 199.486604 
C 887.141725 197.728386 888.12962 195.343395 888.12962 192.856899 
C 888.12962 190.370403 887.141725 187.985413 885.383507 186.227194 
C 883.625288 184.468976 881.240298 183.481081 878.753802 183.481081 
C 876.267306 183.481081 873.882315 184.468976 872.124097 186.227194 
C 870.365879 187.985413 869.377983 190.370403 869.377983 192.856899 
C 869.377983 195.343395 870.365879 197.728386 872.124097 199.486604 
C 873.882315 201.244822 876.267306 202.232718 878.753802 202.232718 
z
" style="fill:#4c2e5a;stroke:#ffffff;stroke-width:0.737422;"/>
    <path clip-path="url(#pe437c1a2bb)" d="M 905.017934 176.08072 
C 907.43831 176.08072 909.75988 175.119094 911.471344 173.40763 
C 913.182809 171.696165 914.144435 169.374595 914.144435 166.954219 
C 914.144435 164.533843 913.182809 162.212273 911.471344 160.500808 
C 909.75988 158.789344 907.43831 157.827718 905.017934 157.827718 
C 902.597558 157.827718 900.275988 158.789344 898.564523 160.500808 
C 896.853059 162.212273 895.891433 164.533843 895.891433 166.954219 
C 895.891433 169.374595 896.853059 171.696165 898.564523 173.40763 
C 900.275988 175.119094 902.597558 176.08072 905.017934 176.08072 
z
" style="fill:#5b3665;stroke:#ffffff;stroke-width:0.737422;"/>
    <path clip-path="url(#pe437c1a2bb)" d="M 931.282066 157.915016 
C 933.705523 157.915016 936.030047 156.952166 937.74369 155.238523 
C 939.457332 153.524881 940.420182 151.200356 940.420182 148.7769 
C 940.420182 146.353443 939.457332 144.028919 937.74369 142.315276 
C 936.030047 140.601633 933.705523 139.638784 931.282066 139.638784 
C 928.858609 139.638784 926.534085 140.601633 924.820442 142.315276 
C 923.1068 144.028919 922.14395 146.353443 922.14395 148.7769 
C 922.14395 151.200356 923.1068 153.524881 924.820442 155.238523 
C 926.534085 156.952166 928.858609 157.915016 931.282066 157.915016 
z
" style="fill:#593564;stroke:#ffffff;stroke-width:0.737422;"/>
    <path clip-path="url(#pe437c1a2bb)" d="M 957.546198 160.594632 
C 960.198229 160.594632 962.741997 159.540969 964.617266 157.665699 
C 966.492535 155.79043 967.546198 153.246663 967.546198 150.594632 
C 967.546198 147.942601 966.492535 145.398833 964.617266 143.523564 
C 962.741997 141.648295 960.198229 140.594632 957.546198 140.594632 
C 954.894167 140.594632 952.3504 141.648295 950.475131 143.523564 
C 948.599861 145.398833 947.546198 147.942601 947.546198 150.594632 
C 947.546198 153.246663 948.599861 155.79043 950.475131 157.665699 
C 952.3504 159.540969 954.894167 160.594632 957.546198 160.594632 
z
" style="fill:#2d1e3e;stroke:#ffffff;stroke-width:0.737422;"/>
    <path clip-path="url(#pe437c1a2bb)" d="M 983.810331 182.63524 
C 986.402264 182.63524 988.888388 181.605453 990.721162 179.772679 
C 992.553936 177.939905 993.583722 175.453782 993.583722 172.861848 
C 993.583722 170.269914 992.553936 167.78379 990.721162 165.951016 
C 988.888388 164.118242 986.402264 163.088456 983.810331 163.088456 
C 981.218397 163.088456 978.732273 164.118242 976.899499 165.951016 
C 975.066725 167.78379 974.036939 170.269914 974.036939 172.861848 
C 974.036939 175.453782 975.066725 177.939905 976.899499 179.772679 
C 978.732273 181.605453 981.218397 182.63524 983.810331 182.63524 
z
" style="fill:#382449;stroke:#ffffff;stroke-width:0.737422;"/>
    <path clip-path="url(#pe437c1a2bb)" d="M 1010.074463 212.645207 
C 1012.671009 212.645207 1015.161556 211.613588 1016.997591 209.777553 
C 1018.833626 207.941518 1019.865245 205.450971 1019.865245 202.854425 
C 1019.865245 200.257879 1018.833626 197.767331 1016.997591 195.931296 
C 1015.161556 194.095261 1012.671009 193.063643 1010.074463 193.063643 
C 1007.477917 193.063643 1004.987369 194.095261 1003.151334 195.931296 
C 1001.315299 197.767331 1000.283681 200.257879 1000.283681 202.854425 
C 1000.283681 205.450971 1001.315299 207.941518 1003.151334 209.777553 
C 1004.987369 211.613588 1007.477917 212.645207 1010.074463 212.645207 
z
" style="fill:#382449;stroke:#ffffff;stroke-width:0.737422;"/>
    <path clip-path="url(#pe437c1a2bb)" d="M 1036.338595 240.005742 
C 1037.996081 240.005742 1039.585904 239.347216 1040.757924 238.175196 
C 1041.929943 237.003177 1042.588469 235.413354 1042.588469 233.755868 
C 1042.588469 232.098382 1041.929943 230.508559 1040.757924 229.336539 
C 1039.585904 228.16452 1037.996081 227.505993 1036.338595 227.505993 
C 1034.681109 227.505993 1033.091286 228.16452 1031.919267 229.336539 
C 1030.747247 230.508559 1030.088721 232.098382 1030.088721 233.755868 
C 1030.088721 235.413354 1030.747247 237.003177 1031.919267 238.175196 
C 1033.091286 239.347216 1034.681109 240.005742 1036.338595 240.005742 
z
" style="fill:#c4829c;stroke:#ffffff;stroke-width:0.737422;"/>
    <path clip-path="url(#pe437c1a2bb)" d="M 1062.602727 258.713585 
C 1063.195739 258.713585 1063.764543 258.477979 1064.183866 258.058656 
C 1064.603189 257.639333 1064.838795 257.070529 1064.838795 256.477517 
C 1064.838795 255.884505 1064.603189 255.315701 1064.183866 254.896378 
C 1063.764543 254.477055 1063.195739 254.241449 1062.602727 254.241449 
C 1062.009715 254.241449 1061.440911 254.477055 1061.021588 254.896378 
C 1060.602266 255.315701 1060.366659 255.884505 1060.366659 256.477517 
C 1060.366659 257.070529 1060.602266 257.639333 1061.021588 258.058656 
C 1061.440911 258.477979 1062.009715 258.713585 1062.602727 258.713585 
z
" style="fill:#edd1cb;stroke:#ffffff;stroke-width:0.737422;"/>
   </g>
   <g id="matplotlib.axis_5">
    <g id="xtick_13">
     <g id="line2d_19">
      <g>
       <use style="stroke:#000000;" x="773.697273" xlink:href="#me2e271804b" y="305.78"/>
      </g>
     </g>
     <g id="text_21">
      <!-- 1 -->
      <g transform="translate(766.698523 330.796563)scale(0.22 -0.22)">
       <use xlink:href="#DejaVuSans-49"/>
      </g>
     </g>
    </g>
    <g id="xtick_14">
     <g id="line2d_20">
      <g>
       <use style="stroke:#000000;" x="826.225537" xlink:href="#me2e271804b" y="305.78"/>
      </g>
     </g>
     <g id="text_22">
      <!-- 3 -->
      <g transform="translate(819.226787 330.796563)scale(0.22 -0.22)">
       <use xlink:href="#DejaVuSans-51"/>
      </g>
     </g>
    </g>
    <g id="xtick_15">
     <g id="line2d_21">
      <g>
       <use style="stroke:#000000;" x="878.753802" xlink:href="#me2e271804b" y="305.78"/>
      </g>
     </g>
     <g id="text_23">
      <!-- 5 -->
      <g transform="translate(871.755052 330.796563)scale(0.22 -0.22)">
       <use xlink:href="#DejaVuSans-53"/>
      </g>
     </g>
    </g>
    <g id="xtick_16">
     <g id="line2d_22">
      <g>
       <use style="stroke:#000000;" x="931.282066" xlink:href="#me2e271804b" y="305.78"/>
      </g>
     </g>
     <g id="text_24">
      <!-- 7 -->
      <g transform="translate(924.283316 330.796563)scale(0.22 -0.22)">
       <use xlink:href="#DejaVuSans-55"/>
      </g>
     </g>
    </g>
    <g id="xtick_17">
     <g id="line2d_23">
      <g>
       <use style="stroke:#000000;" x="983.810331" xlink:href="#me2e271804b" y="305.78"/>
      </g>
     </g>
     <g id="text_25">
      <!-- 9 -->
      <g transform="translate(976.811581 330.796563)scale(0.22 -0.22)">
       <use xlink:href="#DejaVuSans-57"/>
      </g>
     </g>
    </g>
    <g id="xtick_18">
     <g id="line2d_24">
      <g>
       <use style="stroke:#000000;" x="1036.338595" xlink:href="#me2e271804b" y="305.78"/>
      </g>
     </g>
     <g id="text_26">
      <!-- 11 -->
      <g transform="translate(1022.341095 330.796563)scale(0.22 -0.22)">
       <use xlink:href="#DejaVuSans-49"/>
       <use x="63.623047" xlink:href="#DejaVuSans-49"/>
      </g>
     </g>
    </g>
    <g id="text_27">
     <!-- month -->
     <g transform="translate(879.204375 357.608125)scale(0.24 -0.24)">
      <use xlink:href="#DejaVuSans-109"/>
      <use x="97.412109" xlink:href="#DejaVuSans-111"/>
      <use x="158.59375" xlink:href="#DejaVuSans-110"/>
      <use x="221.972656" xlink:href="#DejaVuSans-116"/>
      <use x="261.181641" xlink:href="#DejaVuSans-104"/>
     </g>
    </g>
   </g>
   <g id="matplotlib.axis_6">
    <g id="ytick_7">
     <g id="line2d_25">
      <g>
       <use style="stroke:#000000;" x="759.252" xlink:href="#m7e32258319" y="296.922052"/>
      </g>
     </g>
    </g>
    <g id="ytick_8">
     <g id="line2d_26">
      <g>
       <use style="stroke:#000000;" x="759.252" xlink:href="#m7e32258319" y="206.035456"/>
      </g>
     </g>
    </g>
    <g id="ytick_9">
     <g id="line2d_27">
      <g>
       <use style="stroke:#000000;" x="759.252" xlink:href="#m7e32258319" y="115.148859"/>
      </g>
     </g>
    </g>
   </g>
   <g id="patch_9">
    <path d="M 759.252 305.78 
L 759.252 50.92 
" style="fill:none;stroke:#000000;stroke-linecap:square;stroke-linejoin:miter;"/>
   </g>
   <g id="patch_10">
    <path d="M 759.252 305.78 
L 1077.048 305.78 
" style="fill:none;stroke:#000000;stroke-linecap:square;stroke-linejoin:miter;"/>
   </g>
   <g id="text_28">
    <!-- country = GB -->
    <g transform="translate(837.045 44.92)scale(0.24 -0.24)">
     <defs>
      <path d="M 59.515625 10.40625 
L 59.515625 29.984375 
L 43.40625 29.984375 
L 43.40625 38.09375 
L 69.28125 38.09375 
L 69.28125 6.78125 
Q 63.578125 2.734375 56.6875 0.65625 
Q 49.8125 -1.421875 42 -1.421875 
Q 24.90625 -1.421875 15.25 8.5625 
Q 5.609375 18.5625 5.609375 36.375 
Q 5.609375 54.25 15.25 64.234375 
Q 24.90625 74.21875 42 74.21875 
Q 49.125 74.21875 55.546875 72.453125 
Q 61.96875 70.703125 67.390625 67.28125 
L 67.390625 56.78125 
Q 61.921875 61.421875 55.765625 63.765625 
Q 49.609375 66.109375 42.828125 66.109375 
Q 29.4375 66.109375 22.71875 58.640625 
Q 16.015625 51.171875 16.015625 36.375 
Q 16.015625 21.625 22.71875 14.15625 
Q 29.4375 6.6875 42.828125 6.6875 
Q 48.046875 6.6875 52.140625 7.59375 
Q 56.25 8.5 59.515625 10.40625 
z
" id="DejaVuSans-71"/>
      <path d="M 19.671875 34.8125 
L 19.671875 8.109375 
L 35.5 8.109375 
Q 43.453125 8.109375 47.28125 11.40625 
Q 51.125 14.703125 51.125 21.484375 
Q 51.125 28.328125 47.28125 31.5625 
Q 43.453125 34.8125 35.5 34.8125 
z
M 19.671875 64.796875 
L 19.671875 42.828125 
L 34.28125 42.828125 
Q 41.5 42.828125 45.03125 45.53125 
Q 48.578125 48.25 48.578125 53.8125 
Q 48.578125 59.328125 45.03125 62.0625 
Q 41.5 64.796875 34.28125 64.796875 
z
M 9.8125 72.90625 
L 35.015625 72.90625 
Q 46.296875 72.90625 52.390625 68.21875 
Q 58.5 63.53125 58.5 54.890625 
Q 58.5 48.1875 55.375 44.234375 
Q 52.25 40.28125 46.1875 39.3125 
Q 53.46875 37.75 57.5 32.78125 
Q 61.53125 27.828125 61.53125 20.40625 
Q 61.53125 10.640625 54.890625 5.3125 
Q 48.25 0 35.984375 0 
L 9.8125 0 
z
" id="DejaVuSans-66"/>
     </defs>
     <use xlink:href="#DejaVuSans-99"/>
     <use x="54.980469" xlink:href="#DejaVuSans-111"/>
     <use x="116.162109" xlink:href="#DejaVuSans-117"/>
     <use x="179.541016" xlink:href="#DejaVuSans-110"/>
     <use x="242.919922" xlink:href="#DejaVuSans-116"/>
     <use x="282.128906" xlink:href="#DejaVuSans-114"/>
     <use x="323.242188" xlink:href="#DejaVuSans-121"/>
     <use x="382.421875" xlink:href="#DejaVuSans-32"/>
     <use x="414.208984" xlink:href="#DejaVuSans-61"/>
     <use x="497.998047" xlink:href="#DejaVuSans-32"/>
     <use x="529.785156" xlink:href="#DejaVuSans-71"/>
     <use x="607.275391" xlink:href="#DejaVuSans-66"/>
    </g>
   </g>
  </g>
  <g id="axes_4">
   <g id="patch_11">
    <path d="M 1107.768 305.78 
L 1425.564 305.78 
L 1425.564 50.92 
L 1107.768 50.92 
z
" style="fill:#ffffff;"/>
   </g>
   <g id="PathCollection_10">
    <path clip-path="url(#p2a393ed96f)" d="M 1122.213273 270.797333 
C 1123.480075 270.797333 1124.695162 270.294028 1125.590927 269.398263 
C 1126.486691 268.502499 1126.989997 267.287412 1126.989997 266.02061 
C 1126.989997 264.753808 1126.486691 263.53872 1125.590927 262.642956 
C 1124.695162 261.747191 1123.480075 261.243886 1122.213273 261.243886 
C 1120.946471 261.243886 1119.731383 261.747191 1118.835619 262.642956 
C 1117.939855 263.53872 1117.436549 264.753808 1117.436549 266.02061 
C 1117.436549 267.287412 1117.939855 268.502499 1118.835619 269.398263 
C 1119.731383 270.294028 1120.946471 270.797333 1122.213273 270.797333 
z
" style="fill:#dca6ae;stroke:#ffffff;stroke-width:0.766199;"/>
    <path clip-path="url(#p2a393ed96f)" d="M 1148.477405 270.128416 
C 1149.807842 270.128416 1151.083967 269.599828 1152.024728 268.659066 
C 1152.965489 267.718305 1153.494077 266.442181 1153.494077 265.111744 
C 1153.494077 263.781307 1152.965489 262.505182 1152.024728 261.564421 
C 1151.083967 260.62366 1149.807842 260.095071 1148.477405 260.095071 
C 1147.146968 260.095071 1145.870843 260.62366 1144.930082 261.564421 
C 1143.989321 262.505182 1143.460733 263.781307 1143.460733 265.111744 
C 1143.460733 266.442181 1143.989321 267.718305 1144.930082 268.659066 
C 1145.870843 269.599828 1147.146968 270.128416 1148.477405 270.128416 
z
" style="fill:#d9a1ab;stroke:#ffffff;stroke-width:0.766199;"/>
    <path clip-path="url(#p2a393ed96f)" d="M 1174.741537 246.376823 
C 1176.039864 246.376823 1177.28519 245.860992 1178.203245 244.942937 
C 1179.121301 244.024881 1179.637132 242.779555 1179.637132 241.481228 
C 1179.637132 240.182901 1179.121301 238.937576 1178.203245 238.01952 
C 1177.28519 237.101464 1176.039864 236.585634 1174.741537 236.585634 
C 1173.44321 236.585634 1172.197885 237.101464 1171.279829 238.01952 
C 1170.361773 238.937576 1169.845942 240.182901 1169.845942 241.481228 
C 1169.845942 242.779555 1170.361773 244.024881 1171.279829 244.942937 
C 1172.197885 245.860992 1173.44321 246.376823 1174.741537 246.376823 
z
" style="fill:#daa4ac;stroke:#ffffff;stroke-width:0.766199;"/>
    <path clip-path="url(#p2a393ed96f)" d="M 1201.005669 220.118428 
C 1202.571211 220.118428 1204.072842 219.496432 1205.179847 218.389427 
C 1206.286852 217.282422 1206.908848 215.780791 1206.908848 214.215249 
C 1206.908848 212.649708 1206.286852 211.148077 1205.179847 210.041072 
C 1204.072842 208.934067 1202.571211 208.312071 1201.005669 208.312071 
C 1199.440128 208.312071 1197.938497 208.934067 1196.831492 210.041072 
C 1195.724487 211.148077 1195.102491 212.649708 1195.102491 214.215249 
C 1195.102491 215.780791 1195.724487 217.282422 1196.831492 218.389427 
C 1197.938497 219.496432 1199.440128 220.118428 1201.005669 220.118428 
z
" style="fill:#cb8ca0;stroke:#ffffff;stroke-width:0.766199;"/>
    <path clip-path="url(#p2a393ed96f)" d="M 1227.269802 185.339914 
C 1228.771268 185.339914 1230.21144 184.743375 1231.273137 183.681678 
C 1232.334834 182.619981 1232.931373 181.179809 1232.931373 179.678343 
C 1232.931373 178.176876 1232.334834 176.736704 1231.273137 175.675007 
C 1230.21144 174.61331 1228.771268 174.016772 1227.269802 174.016772 
C 1225.768335 174.016772 1224.328163 174.61331 1223.266466 175.675007 
C 1222.20477 176.736704 1221.608231 178.176876 1221.608231 179.678343 
C 1221.608231 181.179809 1222.20477 182.619981 1223.266466 183.681678 
C 1224.328163 184.743375 1225.768335 185.339914 1227.269802 185.339914 
z
" style="fill:#d093a4;stroke:#ffffff;stroke-width:0.766199;"/>
    <path clip-path="url(#p2a393ed96f)" d="M 1253.533934 163.088959 
C 1255.16023 163.088959 1256.720135 162.442824 1257.8701 161.29286 
C 1259.020065 160.142895 1259.666199 158.582989 1259.666199 156.956693 
C 1259.666199 155.330398 1259.020065 153.770492 1257.8701 152.620527 
C 1256.720135 151.470562 1255.16023 150.824428 1253.533934 150.824428 
C 1251.907638 150.824428 1250.347732 151.470562 1249.197768 152.620527 
C 1248.047803 153.770492 1247.401669 155.330398 1247.401669 156.956693 
C 1247.401669 158.582989 1248.047803 160.142895 1249.197768 161.29286 
C 1250.347732 162.442824 1251.907638 163.088959 1253.533934 163.088959 
z
" style="fill:#c7869e;stroke:#ffffff;stroke-width:0.766199;"/>
    <path clip-path="url(#p2a393ed96f)" d="M 1279.798066 146.427053 
C 1282.308322 146.427053 1284.716103 145.429718 1286.491122 143.654698 
C 1288.266142 141.879679 1289.263477 139.471898 1289.263477 136.961642 
C 1289.263477 134.451386 1288.266142 132.043605 1286.491122 130.268586 
C 1284.716103 128.493567 1282.308322 127.496231 1279.798066 127.496231 
C 1277.28781 127.496231 1274.880029 128.493567 1273.10501 130.268586 
C 1271.329991 132.043605 1270.332655 134.451386 1270.332655 136.961642 
C 1270.332655 139.471898 1271.329991 141.879679 1273.10501 143.654698 
C 1274.880029 145.429718 1277.28781 146.427053 1279.798066 146.427053 
z
" style="fill:#492d58;stroke:#ffffff;stroke-width:0.766199;"/>
    <path clip-path="url(#p2a393ed96f)" d="M 1306.062198 147.470555 
C 1308.608161 147.470555 1311.05019 146.459034 1312.850457 144.658767 
C 1314.650724 142.858499 1315.662246 140.41647 1315.662246 137.870508 
C 1315.662246 135.324546 1314.650724 132.882517 1312.850457 131.082249 
C 1311.05019 129.281982 1308.608161 128.270461 1306.062198 128.270461 
C 1303.516236 128.270461 1301.074207 129.281982 1299.27394 131.082249 
C 1297.473672 132.882517 1296.462151 135.324546 1296.462151 137.870508 
C 1296.462151 140.41647 1297.473672 142.858499 1299.27394 144.658767 
C 1301.074207 146.459034 1303.516236 147.470555 1306.062198 147.470555 
z
" style="fill:#422952;stroke:#ffffff;stroke-width:0.766199;"/>
    <path clip-path="url(#p2a393ed96f)" d="M 1332.326331 171.529014 
C 1334.503717 171.529014 1336.592216 170.663929 1338.13186 169.124285 
C 1339.671504 167.58464 1340.536589 165.496141 1340.536589 163.318755 
C 1340.536589 161.141369 1339.671504 159.05287 1338.13186 157.513226 
C 1336.592216 155.973581 1334.503717 155.108497 1332.326331 155.108497 
C 1330.148945 155.108497 1328.060446 155.973581 1326.520801 157.513226 
C 1324.981157 159.05287 1324.116072 161.141369 1324.116072 163.318755 
C 1324.116072 165.496141 1324.981157 167.58464 1326.520801 169.124285 
C 1328.060446 170.663929 1330.148945 171.529014 1332.326331 171.529014 
z
" style="fill:#854d7e;stroke:#ffffff;stroke-width:0.766199;"/>
    <path clip-path="url(#p2a393ed96f)" d="M 1358.590463 204.01559 
C 1360.465129 204.01559 1362.263266 203.270777 1363.588855 201.945188 
C 1364.914444 200.619599 1365.659257 198.821462 1365.659257 196.946796 
C 1365.659257 195.07213 1364.914444 193.273993 1363.588855 191.948404 
C 1362.263266 190.622815 1360.465129 189.878002 1358.590463 189.878002 
C 1356.715797 189.878002 1354.91766 190.622815 1353.592071 191.948404 
C 1352.266482 193.273993 1351.521669 195.07213 1351.521669 196.946796 
C 1351.521669 198.821462 1352.266482 200.619599 1353.592071 201.945188 
C 1354.91766 203.270777 1356.715797 204.01559 1358.590463 204.01559 
z
" style="fill:#af6c91;stroke:#ffffff;stroke-width:0.766199;"/>
    <path clip-path="url(#p2a393ed96f)" d="M 1384.854595 236.812116 
C 1386.026673 236.812116 1387.150903 236.346445 1387.979687 235.517661 
C 1388.808471 234.688877 1389.274143 233.564646 1389.274143 232.392569 
C 1389.274143 231.220491 1388.808471 230.096261 1387.979687 229.267477 
C 1387.150903 228.438693 1386.026673 227.973021 1384.854595 227.973021 
C 1383.682517 227.973021 1382.558287 228.438693 1381.729503 229.267477 
C 1380.900719 230.096261 1380.435047 231.220491 1380.435047 232.392569 
C 1380.435047 233.564646 1380.900719 234.688877 1381.729503 235.517661 
C 1382.558287 236.346445 1383.682517 236.812116 1384.854595 236.812116 
z
" style="fill:#e0afb3;stroke:#ffffff;stroke-width:0.766199;"/>
    <path clip-path="url(#p2a393ed96f)" d="M 1411.118727 265.895988 
C 1412.531882 265.895988 1413.887347 265.334535 1414.886598 264.335284 
C 1415.885849 263.336033 1416.447301 261.980568 1416.447301 260.567414 
C 1416.447301 259.154259 1415.885849 257.798794 1414.886598 256.799543 
C 1413.887347 255.800292 1412.531882 255.23884 1411.118727 255.23884 
C 1409.705573 255.23884 1408.350108 255.800292 1407.350857 256.799543 
C 1406.351606 257.798794 1405.790153 259.154259 1405.790153 260.567414 
C 1405.790153 261.980568 1406.351606 263.336033 1407.350857 264.335284 
C 1408.350108 265.334535 1409.705573 265.895988 1411.118727 265.895988 
z
" style="fill:#d59aa7;stroke:#ffffff;stroke-width:0.766199;"/>
   </g>
   <g id="matplotlib.axis_7">
    <g id="xtick_19">
     <g id="line2d_28">
      <g>
       <use style="stroke:#000000;" x="1122.213273" xlink:href="#me2e271804b" y="305.78"/>
      </g>
     </g>
     <g id="text_29">
      <!-- 1 -->
      <g transform="translate(1115.214523 330.796563)scale(0.22 -0.22)">
       <use xlink:href="#DejaVuSans-49"/>
      </g>
     </g>
    </g>
    <g id="xtick_20">
     <g id="line2d_29">
      <g>
       <use style="stroke:#000000;" x="1174.741537" xlink:href="#me2e271804b" y="305.78"/>
      </g>
     </g>
     <g id="text_30">
      <!-- 3 -->
      <g transform="translate(1167.742787 330.796563)scale(0.22 -0.22)">
       <use xlink:href="#DejaVuSans-51"/>
      </g>
     </g>
    </g>
    <g id="xtick_21">
     <g id="line2d_30">
      <g>
       <use style="stroke:#000000;" x="1227.269802" xlink:href="#me2e271804b" y="305.78"/>
      </g>
     </g>
     <g id="text_31">
      <!-- 5 -->
      <g transform="translate(1220.271052 330.796563)scale(0.22 -0.22)">
       <use xlink:href="#DejaVuSans-53"/>
      </g>
     </g>
    </g>
    <g id="xtick_22">
     <g id="line2d_31">
      <g>
       <use style="stroke:#000000;" x="1279.798066" xlink:href="#me2e271804b" y="305.78"/>
      </g>
     </g>
     <g id="text_32">
      <!-- 7 -->
      <g transform="translate(1272.799316 330.796563)scale(0.22 -0.22)">
       <use xlink:href="#DejaVuSans-55"/>
      </g>
     </g>
    </g>
    <g id="xtick_23">
     <g id="line2d_32">
      <g>
       <use style="stroke:#000000;" x="1332.326331" xlink:href="#me2e271804b" y="305.78"/>
      </g>
     </g>
     <g id="text_33">
      <!-- 9 -->
      <g transform="translate(1325.327581 330.796563)scale(0.22 -0.22)">
       <use xlink:href="#DejaVuSans-57"/>
      </g>
     </g>
    </g>
    <g id="xtick_24">
     <g id="line2d_33">
      <g>
       <use style="stroke:#000000;" x="1384.854595" xlink:href="#me2e271804b" y="305.78"/>
      </g>
     </g>
     <g id="text_34">
      <!-- 11 -->
      <g transform="translate(1370.857095 330.796563)scale(0.22 -0.22)">
       <use xlink:href="#DejaVuSans-49"/>
       <use x="63.623047" xlink:href="#DejaVuSans-49"/>
      </g>
     </g>
    </g>
    <g id="text_35">
     <!-- month -->
     <g transform="translate(1227.720375 357.608125)scale(0.24 -0.24)">
      <use xlink:href="#DejaVuSans-109"/>
      <use x="97.412109" xlink:href="#DejaVuSans-111"/>
      <use x="158.59375" xlink:href="#DejaVuSans-110"/>
      <use x="221.972656" xlink:href="#DejaVuSans-116"/>
      <use x="261.181641" xlink:href="#DejaVuSans-104"/>
     </g>
    </g>
   </g>
   <g id="matplotlib.axis_8">
    <g id="ytick_10">
     <g id="line2d_34">
      <g>
       <use style="stroke:#000000;" x="1107.768" xlink:href="#m7e32258319" y="296.922052"/>
      </g>
     </g>
    </g>
    <g id="ytick_11">
     <g id="line2d_35">
      <g>
       <use style="stroke:#000000;" x="1107.768" xlink:href="#m7e32258319" y="206.035456"/>
      </g>
     </g>
    </g>
    <g id="ytick_12">
     <g id="line2d_36">
      <g>
       <use style="stroke:#000000;" x="1107.768" xlink:href="#m7e32258319" y="115.148859"/>
      </g>
     </g>
    </g>
   </g>
   <g id="patch_12">
    <path d="M 1107.768 305.78 
L 1107.768 50.92 
" style="fill:none;stroke:#000000;stroke-linecap:square;stroke-linejoin:miter;"/>
   </g>
   <g id="patch_13">
    <path d="M 1107.768 305.78 
L 1425.564 305.78 
" style="fill:none;stroke:#000000;stroke-linecap:square;stroke-linejoin:miter;"/>
   </g>
   <g id="text_36">
    <!-- country = NL -->
    <g transform="translate(1187.4285 44.92)scale(0.24 -0.24)">
     <defs>
      <path d="M 9.8125 72.90625 
L 23.09375 72.90625 
L 55.421875 11.921875 
L 55.421875 72.90625 
L 64.984375 72.90625 
L 64.984375 0 
L 51.703125 0 
L 19.390625 60.984375 
L 19.390625 0 
L 9.8125 0 
z
" id="DejaVuSans-78"/>
      <path d="M 9.8125 72.90625 
L 19.671875 72.90625 
L 19.671875 8.296875 
L 55.171875 8.296875 
L 55.171875 0 
L 9.8125 0 
z
" id="DejaVuSans-76"/>
     </defs>
     <use xlink:href="#DejaVuSans-99"/>
     <use x="54.980469" xlink:href="#DejaVuSans-111"/>
     <use x="116.162109" xlink:href="#DejaVuSans-117"/>
     <use x="179.541016" xlink:href="#DejaVuSans-110"/>
     <use x="242.919922" xlink:href="#DejaVuSans-116"/>
     <use x="282.128906" xlink:href="#DejaVuSans-114"/>
     <use x="323.242188" xlink:href="#DejaVuSans-121"/>
     <use x="382.421875" xlink:href="#DejaVuSans-32"/>
     <use x="414.208984" xlink:href="#DejaVuSans-61"/>
     <use x="497.998047" xlink:href="#DejaVuSans-32"/>
     <use x="529.785156" xlink:href="#DejaVuSans-78"/>
     <use x="604.589844" xlink:href="#DejaVuSans-76"/>
    </g>
   </g>
  </g>
  <g id="axes_5">
   <g id="patch_14">
    <path d="M 1456.284 305.78 
L 1774.08 305.78 
L 1774.08 50.92 
L 1456.284 50.92 
z
" style="fill:#ffffff;"/>
   </g>
   <g id="PathCollection_11">
    <path clip-path="url(#p6d697a569f)" d="M 1470.729273 264.267894 
C 1473.105868 264.267894 1475.385444 263.323663 1477.065951 261.643156 
C 1478.746458 259.96265 1479.690689 257.683073 1479.690689 255.306478 
C 1479.690689 252.929883 1478.746458 250.650307 1477.065951 248.9698 
C 1475.385444 247.289293 1473.105868 246.345062 1470.729273 246.345062 
C 1468.352677 246.345062 1466.073101 247.289293 1464.392595 248.9698 
C 1462.712088 250.650307 1461.767857 252.929883 1461.767857 255.306478 
C 1461.767857 257.683073 1462.712088 259.96265 1464.392595 261.643156 
C 1466.073101 263.323663 1468.352677 264.267894 1470.729273 264.267894 
z
" style="fill:#62396a;stroke:#ffffff;stroke-width:1.288856;"/>
    <path clip-path="url(#p6d697a569f)" d="M 1496.993405 247.007759 
C 1499.4371 247.007759 1501.781037 246.036869 1503.50899 244.308915 
C 1505.236944 242.580962 1506.207834 240.237025 1506.207834 237.79333 
C 1506.207834 235.349635 1505.236944 233.005698 1503.50899 231.277745 
C 1501.781037 229.549791 1499.4371 228.578901 1496.993405 228.578901 
C 1494.54971 228.578901 1492.205773 229.549791 1490.47782 231.277745 
C 1488.749866 233.005698 1487.778976 235.349635 1487.778976 237.79333 
C 1487.778976 240.237025 1488.749866 242.580962 1490.47782 244.308915 
C 1492.205773 246.036869 1494.54971 247.007759 1496.993405 247.007759 
z
" style="fill:#553361;stroke:#ffffff;stroke-width:1.288856;"/>
    <path clip-path="url(#p6d697a569f)" d="M 1523.257537 211.510208 
C 1525.488184 211.510208 1527.627769 210.623963 1529.205075 209.046657 
C 1530.78238 207.469352 1531.668626 205.329766 1531.668626 203.099119 
C 1531.668626 200.868473 1530.78238 198.728887 1529.205075 197.151582 
C 1527.627769 195.574276 1525.488184 194.688031 1523.257537 194.688031 
C 1521.02689 194.688031 1518.887305 195.574276 1517.309999 197.151582 
C 1515.732694 198.728887 1514.846449 200.868473 1514.846449 203.099119 
C 1514.846449 205.329766 1515.732694 207.469352 1517.309999 209.046657 
C 1518.887305 210.623963 1521.02689 211.510208 1523.257537 211.510208 
z
" style="fill:#7c4879;stroke:#ffffff;stroke-width:1.288856;"/>
    <path clip-path="url(#p6d697a569f)" d="M 1549.521669 171.520123 
C 1551.891379 171.520123 1554.164351 170.578628 1555.839988 168.90299 
C 1557.515626 167.227352 1558.457122 164.954381 1558.457122 162.584671 
C 1558.457122 160.214961 1557.515626 157.94199 1555.839988 156.266352 
C 1554.164351 154.590714 1551.891379 153.649219 1549.521669 153.649219 
C 1547.15196 153.649219 1544.878988 154.590714 1543.203351 156.266352 
C 1541.527713 157.94199 1540.586217 160.214961 1540.586217 162.584671 
C 1540.586217 164.954381 1541.527713 167.227352 1543.203351 168.90299 
C 1544.878988 170.578628 1547.15196 171.520123 1549.521669 171.520123 
z
" style="fill:#643a6b;stroke:#ffffff;stroke-width:1.288856;"/>
    <path clip-path="url(#p6d697a569f)" d="M 1575.785802 129.709605 
C 1578.173341 129.709605 1580.463414 128.761026 1582.151659 127.072781 
C 1583.839904 125.384536 1584.788483 123.094463 1584.788483 120.706924 
C 1584.788483 118.319385 1583.839904 116.029312 1582.151659 114.341067 
C 1580.463414 112.652822 1578.173341 111.704243 1575.785802 111.704243 
C 1573.398263 111.704243 1571.10819 112.652822 1569.419945 114.341067 
C 1567.7317 116.029312 1566.78312 118.319385 1566.78312 120.706924 
C 1566.78312 123.094463 1567.7317 125.384536 1569.419945 127.072781 
C 1571.10819 128.761026 1573.398263 129.709605 1575.785802 129.709605 
z
" style="fill:#613969;stroke:#ffffff;stroke-width:1.288856;"/>
    <path clip-path="url(#p6d697a569f)" d="M 1602.049934 90.584361 
C 1604.175497 90.584361 1606.214289 89.739866 1607.71729 88.236865 
C 1609.22029 86.733865 1610.064786 84.695073 1610.064786 82.56951 
C 1610.064786 80.443946 1609.22029 78.405154 1607.71729 76.902154 
C 1606.214289 75.399153 1604.175497 74.554658 1602.049934 74.554658 
C 1599.92437 74.554658 1597.885578 75.399153 1596.382578 76.902154 
C 1594.879578 78.405154 1594.035082 80.443946 1594.035082 82.56951 
C 1594.035082 84.695073 1594.879578 86.733865 1596.382578 88.236865 
C 1597.885578 89.739866 1599.92437 90.584361 1602.049934 90.584361 
z
" style="fill:#8d5282;stroke:#ffffff;stroke-width:1.288856;"/>
    <path clip-path="url(#p6d697a569f)" d="M 1628.314066 69.793491 
C 1630.247117 69.793491 1632.101256 69.025482 1633.468129 67.658609 
C 1634.835003 66.291735 1635.603012 64.437597 1635.603012 62.504545 
C 1635.603012 60.571494 1634.835003 58.717356 1633.468129 57.350482 
C 1632.101256 55.983609 1630.247117 55.2156 1628.314066 55.2156 
C 1626.381015 55.2156 1624.526877 55.983609 1623.160003 57.350482 
C 1621.79313 58.717356 1621.02512 60.571494 1621.02512 62.504545 
C 1621.02512 64.437597 1621.79313 66.291735 1623.160003 67.658609 
C 1624.526877 69.025482 1626.381015 69.793491 1628.314066 69.793491 
z
" style="fill:#a8668e;stroke:#ffffff;stroke-width:1.288856;"/>
    <path clip-path="url(#p6d697a569f)" d="M 1654.578198 75.737895 
C 1656.831565 75.737895 1658.992944 74.842623 1660.586315 73.249252 
C 1662.179686 71.655881 1663.074958 69.494502 1663.074958 67.241135 
C 1663.074958 64.987768 1662.179686 62.82639 1660.586315 61.233019 
C 1658.992944 59.639648 1656.831565 58.744375 1654.578198 58.744375 
C 1652.324831 58.744375 1650.163453 59.639648 1648.570082 61.233019 
C 1646.976711 62.82639 1646.081438 64.987768 1646.081438 67.241135 
C 1646.081438 69.494502 1646.976711 71.655881 1648.570082 73.249252 
C 1650.163453 74.842623 1652.324831 75.737895 1654.578198 75.737895 
z
" style="fill:#784577;stroke:#ffffff;stroke-width:1.288856;"/>
    <path clip-path="url(#p6d697a569f)" d="M 1680.842331 107.74636 
C 1683.33366 107.74636 1685.723286 106.756544 1687.484922 104.994908 
C 1689.246558 103.233272 1690.236374 100.843646 1690.236374 98.352317 
C 1690.236374 95.860987 1689.246558 93.471361 1687.484922 91.709725 
C 1685.723286 89.948089 1683.33366 88.958273 1680.842331 88.958273 
C 1678.351001 88.958273 1675.961375 89.948089 1674.199739 91.709725 
C 1672.438103 93.471361 1671.448287 95.860987 1671.448287 98.352317 
C 1671.448287 100.843646 1672.438103 103.233272 1674.199739 104.994908 
C 1675.961375 106.756544 1678.351001 107.74636 1680.842331 107.74636 
z
" style="fill:#4c2e5a;stroke:#ffffff;stroke-width:1.288856;"/>
    <path clip-path="url(#p6d697a569f)" d="M 1707.106463 159.336252 
C 1709.610179 159.336252 1712.011686 158.341515 1713.78208 156.571121 
C 1715.552474 154.800727 1716.547211 152.39922 1716.547211 149.895504 
C 1716.547211 147.391788 1715.552474 144.990281 1713.78208 143.219887 
C 1712.011686 141.449492 1709.610179 140.454756 1707.106463 140.454756 
C 1704.602747 140.454756 1702.20124 141.449492 1700.430846 143.219887 
C 1698.660451 144.990281 1697.665714 147.391788 1697.665714 149.895504 
C 1697.665714 152.39922 1698.660451 154.800727 1700.430846 156.571121 
C 1702.20124 158.341515 1704.602747 159.336252 1707.106463 159.336252 
z
" style="fill:#492d58;stroke:#ffffff;stroke-width:1.288856;"/>
    <path clip-path="url(#p6d697a569f)" d="M 1733.370595 211.95917 
C 1735.817649 211.95917 1738.164807 210.986945 1739.895135 209.256617 
C 1741.625463 207.526289 1742.597688 205.179131 1742.597688 202.732077 
C 1742.597688 200.285024 1741.625463 197.937866 1739.895135 196.207538 
C 1738.164807 194.47721 1735.817649 193.504985 1733.370595 193.504985 
C 1730.923542 193.504985 1728.576384 194.47721 1726.846055 196.207538 
C 1725.115727 197.937866 1724.143503 200.285024 1724.143503 202.732077 
C 1724.143503 205.179131 1725.115727 207.526289 1726.846055 209.256617 
C 1728.576384 210.986945 1730.923542 211.95917 1733.370595 211.95917 
z
" style="fill:#553361;stroke:#ffffff;stroke-width:1.288856;"/>
    <path clip-path="url(#p6d697a569f)" d="M 1759.634727 255.114234 
C 1761.901379 255.114234 1764.0755 254.213684 1765.678264 252.610919 
C 1767.281029 251.008154 1768.181579 248.834034 1768.181579 246.567382 
C 1768.181579 244.300731 1767.281029 242.12661 1765.678264 240.523845 
C 1764.0755 238.92108 1761.901379 238.02053 1759.634727 238.02053 
C 1757.368076 238.02053 1755.193955 238.92108 1753.59119 240.523845 
C 1751.988425 242.12661 1751.087875 244.300731 1751.087875 246.567382 
C 1751.087875 248.834034 1751.988425 251.008154 1753.59119 252.610919 
C 1755.193955 254.213684 1757.368076 255.114234 1759.634727 255.114234 
z
" style="fill:#754475;stroke:#ffffff;stroke-width:1.288856;"/>
   </g>
   <g id="matplotlib.axis_9">
    <g id="xtick_25">
     <g id="line2d_37">
      <g>
       <use style="stroke:#000000;" x="1470.729273" xlink:href="#me2e271804b" y="305.78"/>
      </g>
     </g>
     <g id="text_37">
      <!-- 1 -->
      <g transform="translate(1463.730523 330.796563)scale(0.22 -0.22)">
       <use xlink:href="#DejaVuSans-49"/>
      </g>
     </g>
    </g>
    <g id="xtick_26">
     <g id="line2d_38">
      <g>
       <use style="stroke:#000000;" x="1523.257537" xlink:href="#me2e271804b" y="305.78"/>
      </g>
     </g>
     <g id="text_38">
      <!-- 3 -->
      <g transform="translate(1516.258787 330.796563)scale(0.22 -0.22)">
       <use xlink:href="#DejaVuSans-51"/>
      </g>
     </g>
    </g>
    <g id="xtick_27">
     <g id="line2d_39">
      <g>
       <use style="stroke:#000000;" x="1575.785802" xlink:href="#me2e271804b" y="305.78"/>
      </g>
     </g>
     <g id="text_39">
      <!-- 5 -->
      <g transform="translate(1568.787052 330.796563)scale(0.22 -0.22)">
       <use xlink:href="#DejaVuSans-53"/>
      </g>
     </g>
    </g>
    <g id="xtick_28">
     <g id="line2d_40">
      <g>
       <use style="stroke:#000000;" x="1628.314066" xlink:href="#me2e271804b" y="305.78"/>
      </g>
     </g>
     <g id="text_40">
      <!-- 7 -->
      <g transform="translate(1621.315316 330.796563)scale(0.22 -0.22)">
       <use xlink:href="#DejaVuSans-55"/>
      </g>
     </g>
    </g>
    <g id="xtick_29">
     <g id="line2d_41">
      <g>
       <use style="stroke:#000000;" x="1680.842331" xlink:href="#me2e271804b" y="305.78"/>
      </g>
     </g>
     <g id="text_41">
      <!-- 9 -->
      <g transform="translate(1673.843581 330.796563)scale(0.22 -0.22)">
       <use xlink:href="#DejaVuSans-57"/>
      </g>
     </g>
    </g>
    <g id="xtick_30">
     <g id="line2d_42">
      <g>
       <use style="stroke:#000000;" x="1733.370595" xlink:href="#me2e271804b" y="305.78"/>
      </g>
     </g>
     <g id="text_42">
      <!-- 11 -->
      <g transform="translate(1719.373095 330.796563)scale(0.22 -0.22)">
       <use xlink:href="#DejaVuSans-49"/>
       <use x="63.623047" xlink:href="#DejaVuSans-49"/>
      </g>
     </g>
    </g>
    <g id="text_43">
     <!-- month -->
     <g transform="translate(1576.236375 357.608125)scale(0.24 -0.24)">
      <use xlink:href="#DejaVuSans-109"/>
      <use x="97.412109" xlink:href="#DejaVuSans-111"/>
      <use x="158.59375" xlink:href="#DejaVuSans-110"/>
      <use x="221.972656" xlink:href="#DejaVuSans-116"/>
      <use x="261.181641" xlink:href="#DejaVuSans-104"/>
     </g>
    </g>
   </g>
   <g id="matplotlib.axis_10">
    <g id="ytick_13">
     <g id="line2d_43">
      <g>
       <use style="stroke:#000000;" x="1456.284" xlink:href="#m7e32258319" y="296.922052"/>
      </g>
     </g>
    </g>
    <g id="ytick_14">
     <g id="line2d_44">
      <g>
       <use style="stroke:#000000;" x="1456.284" xlink:href="#m7e32258319" y="206.035456"/>
      </g>
     </g>
    </g>
    <g id="ytick_15">
     <g id="line2d_45">
      <g>
       <use style="stroke:#000000;" x="1456.284" xlink:href="#m7e32258319" y="115.148859"/>
      </g>
     </g>
    </g>
   </g>
   <g id="patch_15">
    <path d="M 1456.284 305.78 
L 1456.284 50.92 
" style="fill:none;stroke:#000000;stroke-linecap:square;stroke-linejoin:miter;"/>
   </g>
   <g id="patch_16">
    <path d="M 1456.284 305.78 
L 1774.08 305.78 
" style="fill:none;stroke:#000000;stroke-linecap:square;stroke-linejoin:miter;"/>
   </g>
   <g id="text_44">
    <!-- country = US -->
    <g transform="translate(1535.207625 44.92)scale(0.24 -0.24)">
     <defs>
      <path d="M 8.6875 72.90625 
L 18.609375 72.90625 
L 18.609375 28.609375 
Q 18.609375 16.890625 22.84375 11.734375 
Q 27.09375 6.59375 36.625 6.59375 
Q 46.09375 6.59375 50.34375 11.734375 
Q 54.59375 16.890625 54.59375 28.609375 
L 54.59375 72.90625 
L 64.5 72.90625 
L 64.5 27.390625 
Q 64.5 13.140625 57.4375 5.859375 
Q 50.390625 -1.421875 36.625 -1.421875 
Q 22.796875 -1.421875 15.734375 5.859375 
Q 8.6875 13.140625 8.6875 27.390625 
z
" id="DejaVuSans-85"/>
      <path d="M 53.515625 70.515625 
L 53.515625 60.890625 
Q 47.90625 63.578125 42.921875 64.890625 
Q 37.9375 66.21875 33.296875 66.21875 
Q 25.25 66.21875 20.875 63.09375 
Q 16.5 59.96875 16.5 54.203125 
Q 16.5 49.359375 19.40625 46.890625 
Q 22.3125 44.4375 30.421875 42.921875 
L 36.375 41.703125 
Q 47.40625 39.59375 52.65625 34.296875 
Q 57.90625 29 57.90625 20.125 
Q 57.90625 9.515625 50.796875 4.046875 
Q 43.703125 -1.421875 29.984375 -1.421875 
Q 24.8125 -1.421875 18.96875 -0.25 
Q 13.140625 0.921875 6.890625 3.21875 
L 6.890625 13.375 
Q 12.890625 10.015625 18.65625 8.296875 
Q 24.421875 6.59375 29.984375 6.59375 
Q 38.421875 6.59375 43.015625 9.90625 
Q 47.609375 13.234375 47.609375 19.390625 
Q 47.609375 24.75 44.3125 27.78125 
Q 41.015625 30.8125 33.5 32.328125 
L 27.484375 33.5 
Q 16.453125 35.6875 11.515625 40.375 
Q 6.59375 45.0625 6.59375 53.421875 
Q 6.59375 63.09375 13.40625 68.65625 
Q 20.21875 74.21875 32.171875 74.21875 
Q 37.3125 74.21875 42.625 73.28125 
Q 47.953125 72.359375 53.515625 70.515625 
z
" id="DejaVuSans-83"/>
     </defs>
     <use xlink:href="#DejaVuSans-99"/>
     <use x="54.980469" xlink:href="#DejaVuSans-111"/>
     <use x="116.162109" xlink:href="#DejaVuSans-117"/>
     <use x="179.541016" xlink:href="#DejaVuSans-110"/>
     <use x="242.919922" xlink:href="#DejaVuSans-116"/>
     <use x="282.128906" xlink:href="#DejaVuSans-114"/>
     <use x="323.242188" xlink:href="#DejaVuSans-121"/>
     <use x="382.421875" xlink:href="#DejaVuSans-32"/>
     <use x="414.208984" xlink:href="#DejaVuSans-61"/>
     <use x="497.998047" xlink:href="#DejaVuSans-32"/>
     <use x="529.785156" xlink:href="#DejaVuSans-85"/>
     <use x="602.978516" xlink:href="#DejaVuSans-83"/>
    </g>
   </g>
  </g>
  <g id="legend_1">
   <g id="patch_17">
    <path d="M 442.29375 427.891875 
L 1334.6 427.891875 
Q 1339 427.891875 1339 423.491875 
L 1339 393.4 
Q 1339 389 1334.6 389 
L 442.29375 389 
Q 437.89375 389 437.89375 393.4 
L 437.89375 423.491875 
Q 437.89375 427.891875 442.29375 427.891875 
z
" style="fill:#ffffff;opacity:0.8;stroke:#cccccc;stroke-linejoin:miter;stroke-width:0.8;"/>
   </g>
   <g id="PathCollection_12">
    <defs>
     <path d="M 0 3.725032 
C 0.98789 3.725032 1.935452 3.332539 2.633995 2.633995 
C 3.332539 1.935452 3.725032 0.98789 3.725032 0 
C 3.725032 -0.98789 3.332539 -1.935452 2.633995 -2.633995 
C 1.935452 -3.332539 0.98789 -3.725032 0 -3.725032 
C -0.98789 -3.725032 -1.935452 -3.332539 -2.633995 -2.633995 
C -3.332539 -1.935452 -3.725032 -0.98789 -3.725032 0 
C -3.725032 0.98789 -3.332539 1.935452 -2.633995 2.633995 
C -1.935452 3.332539 -0.98789 3.725032 0 3.725032 
z
" id="me9259a39ea" style="stroke:#e6bdbc;stroke-width:0.8;"/>
    </defs>
    <g>
     <use style="fill:#e6bdbc;stroke:#e6bdbc;stroke-width:0.8;" x="468.69375" xlink:href="#me9259a39ea" y="408.741562"/>
    </g>
   </g>
   <g id="text_45">
    <!-- 0.56 -->
    <g transform="translate(508.29375 414.516562)scale(0.22 -0.22)">
     <defs>
      <path d="M 10.6875 12.40625 
L 21 12.40625 
L 21 0 
L 10.6875 0 
z
" id="DejaVuSans-46"/>
      <path d="M 33.015625 40.375 
Q 26.375 40.375 22.484375 35.828125 
Q 18.609375 31.296875 18.609375 23.390625 
Q 18.609375 15.53125 22.484375 10.953125 
Q 26.375 6.390625 33.015625 6.390625 
Q 39.65625 6.390625 43.53125 10.953125 
Q 47.40625 15.53125 47.40625 23.390625 
Q 47.40625 31.296875 43.53125 35.828125 
Q 39.65625 40.375 33.015625 40.375 
z
M 52.59375 71.296875 
L 52.59375 62.3125 
Q 48.875 64.0625 45.09375 64.984375 
Q 41.3125 65.921875 37.59375 65.921875 
Q 27.828125 65.921875 22.671875 59.328125 
Q 17.53125 52.734375 16.796875 39.40625 
Q 19.671875 43.65625 24.015625 45.921875 
Q 28.375 48.1875 33.59375 48.1875 
Q 44.578125 48.1875 50.953125 41.515625 
Q 57.328125 34.859375 57.328125 23.390625 
Q 57.328125 12.15625 50.6875 5.359375 
Q 44.046875 -1.421875 33.015625 -1.421875 
Q 20.359375 -1.421875 13.671875 8.265625 
Q 6.984375 17.96875 6.984375 36.375 
Q 6.984375 53.65625 15.1875 63.9375 
Q 23.390625 74.21875 37.203125 74.21875 
Q 40.921875 74.21875 44.703125 73.484375 
Q 48.484375 72.75 52.59375 71.296875 
z
" id="DejaVuSans-54"/>
     </defs>
     <use xlink:href="#DejaVuSans-48"/>
     <use x="63.623047" xlink:href="#DejaVuSans-46"/>
     <use x="95.410156" xlink:href="#DejaVuSans-53"/>
     <use x="159.033203" xlink:href="#DejaVuSans-54"/>
    </g>
   </g>
   <g id="PathCollection_13">
    <defs>
     <path d="M 0 5.468338 
C 1.45022 5.468338 2.841238 4.89216 3.866699 3.866699 
C 4.89216 2.841238 5.468338 1.45022 5.468338 0 
C 5.468338 -1.45022 4.89216 -2.841238 3.866699 -3.866699 
C 2.841238 -4.89216 1.45022 -5.468338 0 -5.468338 
C -1.45022 -5.468338 -2.841238 -4.89216 -3.866699 -3.866699 
C -4.89216 -2.841238 -5.468338 -1.45022 -5.468338 0 
C -5.468338 1.45022 -4.89216 2.841238 -3.866699 3.866699 
C -2.841238 4.89216 -1.45022 5.468338 0 5.468338 
z
" id="md8d0141908" style="stroke:#d396a5;stroke-width:0.8;"/>
    </defs>
    <g>
     <use style="fill:#d396a5;stroke:#d396a5;stroke-width:0.8;" x="623.278125" xlink:href="#md8d0141908" y="408.741562"/>
    </g>
   </g>
   <g id="text_46">
    <!-- 0.64 -->
    <g transform="translate(662.878125 414.516562)scale(0.22 -0.22)">
     <defs>
      <path d="M 37.796875 64.3125 
L 12.890625 25.390625 
L 37.796875 25.390625 
z
M 35.203125 72.90625 
L 47.609375 72.90625 
L 47.609375 25.390625 
L 58.015625 25.390625 
L 58.015625 17.1875 
L 47.609375 17.1875 
L 47.609375 0 
L 37.796875 0 
L 37.796875 17.1875 
L 4.890625 17.1875 
L 4.890625 26.703125 
z
" id="DejaVuSans-52"/>
     </defs>
     <use xlink:href="#DejaVuSans-48"/>
     <use x="63.623047" xlink:href="#DejaVuSans-46"/>
     <use x="95.410156" xlink:href="#DejaVuSans-54"/>
     <use x="159.033203" xlink:href="#DejaVuSans-52"/>
    </g>
   </g>
   <g id="PathCollection_14">
    <defs>
     <path d="M 0 6.777137 
C 1.797318 6.777137 3.521264 6.063055 4.792159 4.792159 
C 6.063055 3.521264 6.777137 1.797318 6.777137 0 
C 6.777137 -1.797318 6.063055 -3.521264 4.792159 -4.792159 
C 3.521264 -6.063055 1.797318 -6.777137 0 -6.777137 
C -1.797318 -6.777137 -3.521264 -6.063055 -4.792159 -4.792159 
C -6.063055 -3.521264 -6.777137 -1.797318 -6.777137 0 
C -6.777137 1.797318 -6.063055 3.521264 -4.792159 4.792159 
C -3.521264 6.063055 -1.797318 6.777137 0 6.777137 
z
" id="mc9d8bfa665" style="stroke:#b77495;stroke-width:0.8;"/>
    </defs>
    <g>
     <use style="fill:#b77495;stroke:#b77495;stroke-width:0.8;" x="777.8625" xlink:href="#mc9d8bfa665" y="408.741562"/>
    </g>
   </g>
   <g id="text_47">
    <!-- 0.72 -->
    <g transform="translate(817.4625 414.516562)scale(0.22 -0.22)">
     <use xlink:href="#DejaVuSans-48"/>
     <use x="63.623047" xlink:href="#DejaVuSans-46"/>
     <use x="95.410156" xlink:href="#DejaVuSans-55"/>
     <use x="159.033203" xlink:href="#DejaVuSans-50"/>
    </g>
   </g>
   <g id="PathCollection_15">
    <defs>
     <path d="M 0 7.871242 
C 2.087478 7.871242 4.089739 7.041878 5.565808 5.565808 
C 7.041878 4.089739 7.871242 2.087478 7.871242 0 
C 7.871242 -2.087478 7.041878 -4.089739 5.565808 -5.565808 
C 4.089739 -7.041878 2.087478 -7.871242 0 -7.871242 
C -2.087478 -7.871242 -4.089739 -7.041878 -5.565808 -5.565808 
C -7.041878 -4.089739 -7.871242 -2.087478 -7.871242 0 
C -7.871242 2.087478 -7.041878 4.089739 -5.565808 5.565808 
C -4.089739 7.041878 -2.087478 7.871242 0 7.871242 
z
" id="m36ba3e4495" style="stroke:#945785;stroke-width:0.8;"/>
    </defs>
    <g>
     <use style="fill:#945785;stroke:#945785;stroke-width:0.8;" x="932.446875" xlink:href="#m36ba3e4495" y="408.741562"/>
    </g>
   </g>
   <g id="text_48">
    <!-- 0.80 -->
    <g transform="translate(972.046875 414.516562)scale(0.22 -0.22)">
     <defs>
      <path d="M 31.78125 34.625 
Q 24.75 34.625 20.71875 30.859375 
Q 16.703125 27.09375 16.703125 20.515625 
Q 16.703125 13.921875 20.71875 10.15625 
Q 24.75 6.390625 31.78125 6.390625 
Q 38.8125 6.390625 42.859375 10.171875 
Q 46.921875 13.96875 46.921875 20.515625 
Q 46.921875 27.09375 42.890625 30.859375 
Q 38.875 34.625 31.78125 34.625 
z
M 21.921875 38.8125 
Q 15.578125 40.375 12.03125 44.71875 
Q 8.5 49.078125 8.5 55.328125 
Q 8.5 64.0625 14.71875 69.140625 
Q 20.953125 74.21875 31.78125 74.21875 
Q 42.671875 74.21875 48.875 69.140625 
Q 55.078125 64.0625 55.078125 55.328125 
Q 55.078125 49.078125 51.53125 44.71875 
Q 48 40.375 41.703125 38.8125 
Q 48.828125 37.15625 52.796875 32.3125 
Q 56.78125 27.484375 56.78125 20.515625 
Q 56.78125 9.90625 50.3125 4.234375 
Q 43.84375 -1.421875 31.78125 -1.421875 
Q 19.734375 -1.421875 13.25 4.234375 
Q 6.78125 9.90625 6.78125 20.515625 
Q 6.78125 27.484375 10.78125 32.3125 
Q 14.796875 37.15625 21.921875 38.8125 
z
M 18.3125 54.390625 
Q 18.3125 48.734375 21.84375 45.5625 
Q 25.390625 42.390625 31.78125 42.390625 
Q 38.140625 42.390625 41.71875 45.5625 
Q 45.3125 48.734375 45.3125 54.390625 
Q 45.3125 60.0625 41.71875 63.234375 
Q 38.140625 66.40625 31.78125 66.40625 
Q 25.390625 66.40625 21.84375 63.234375 
Q 18.3125 60.0625 18.3125 54.390625 
z
" id="DejaVuSans-56"/>
     </defs>
     <use xlink:href="#DejaVuSans-48"/>
     <use x="63.623047" xlink:href="#DejaVuSans-46"/>
     <use x="95.410156" xlink:href="#DejaVuSans-56"/>
     <use x="159.033203" xlink:href="#DejaVuSans-48"/>
    </g>
   </g>
   <g id="PathCollection_16">
    <defs>
     <path d="M 0 8.830816 
C 2.34196 8.830816 4.588314 7.900345 6.24433 6.24433 
C 7.900345 4.588314 8.830816 2.34196 8.830816 0 
C 8.830816 -2.34196 7.900345 -4.588314 6.24433 -6.24433 
C 4.588314 -7.900345 2.34196 -8.830816 0 -8.830816 
C -2.34196 -8.830816 -4.588314 -7.900345 -6.24433 -6.24433 
C -7.900345 -4.588314 -8.830816 -2.34196 -8.830816 0 
C -8.830816 2.34196 -7.900345 4.588314 -6.24433 6.24433 
C -4.588314 7.900345 -2.34196 8.830816 0 8.830816 
z
" id="m10785ab4db" style="stroke:#683d6e;stroke-width:0.8;"/>
    </defs>
    <g>
     <use style="fill:#683d6e;stroke:#683d6e;stroke-width:0.8;" x="1087.03125" xlink:href="#m10785ab4db" y="408.741562"/>
    </g>
   </g>
   <g id="text_49">
    <!-- 0.88 -->
    <g transform="translate(1126.63125 414.516562)scale(0.22 -0.22)">
     <use xlink:href="#DejaVuSans-48"/>
     <use x="63.623047" xlink:href="#DejaVuSans-46"/>
     <use x="95.410156" xlink:href="#DejaVuSans-56"/>
     <use x="159.033203" xlink:href="#DejaVuSans-56"/>
    </g>
   </g>
   <g id="PathCollection_17">
    <defs>
     <path d="M 0 9.695884 
C 2.571378 9.695884 5.037786 8.674264 6.856025 6.856025 
C 8.674264 5.037786 9.695884 2.571378 9.695884 0 
C 9.695884 -2.571378 8.674264 -5.037786 6.856025 -6.856025 
C 5.037786 -8.674264 2.571378 -9.695884 0 -9.695884 
C -2.571378 -9.695884 -5.037786 -8.674264 -6.856025 -6.856025 
C -8.674264 -5.037786 -9.695884 -2.571378 -9.695884 0 
C -9.695884 2.571378 -8.674264 5.037786 -6.856025 6.856025 
C -5.037786 8.674264 -2.571378 9.695884 0 9.695884 
z
" id="mddfcb81a6d" style="stroke:#3c264d;stroke-width:0.8;"/>
    </defs>
    <g>
     <use style="fill:#3c264d;stroke:#3c264d;stroke-width:0.8;" x="1241.615625" xlink:href="#mddfcb81a6d" y="408.741562"/>
    </g>
   </g>
   <g id="text_50">
    <!-- 0.96 -->
    <g transform="translate(1281.215625 414.516562)scale(0.22 -0.22)">
     <use xlink:href="#DejaVuSans-48"/>
     <use x="63.623047" xlink:href="#DejaVuSans-46"/>
     <use x="95.410156" xlink:href="#DejaVuSans-57"/>
     <use x="159.033203" xlink:href="#DejaVuSans-54"/>
    </g>
   </g>
  </g>
 </g>
 <defs>
  <clipPath id="pec66ee8b1f">
   <rect height="254.86" width="317.796" x="62.22" y="50.92"/>
  </clipPath>
  <clipPath id="p52e92da977">
   <rect height="254.86" width="317.796" x="410.736" y="50.92"/>
  </clipPath>
  <clipPath id="pe437c1a2bb">
   <rect height="254.86" width="317.796" x="759.252" y="50.92"/>
  </clipPath>
  <clipPath id="p2a393ed96f">
   <rect height="254.86" width="317.796" x="1107.768" y="50.92"/>
  </clipPath>
  <clipPath id="p6d697a569f">
   <rect height="254.86" width="317.796" x="1456.284" y="50.92"/>
  </clipPath>
 </defs>
</svg>
