<svg width="1715" height="2081" xmlns="http://www.w3.org/2000/svg" xmlns:xlink="http://www.w3.org/1999/xlink" overflow="hidden"><defs><clipPath id="clip0"><rect x="2820" y="185" width="1715" height="2081"/></clipPath><clipPath id="clip1"><rect x="2820" y="185" width="1712" height="2078"/></clipPath><clipPath id="clip2"><rect x="2820" y="185" width="1712" height="2078"/></clipPath><clipPath id="clip3"><rect x="3157" y="238" width="716" height="1908"/></clipPath><clipPath id="clip4"><rect x="2820" y="185" width="1712" height="2078"/></clipPath><clipPath id="clip5"><rect x="3157" y="238" width="716" height="1908"/></clipPath><clipPath id="clip6"><rect x="2820" y="185" width="1712" height="2078"/></clipPath><clipPath id="clip7"><rect x="3157" y="238" width="716" height="1908"/></clipPath><clipPath id="clip8"><rect x="2820" y="185" width="1712" height="2078"/></clipPath><clipPath id="clip9"><rect x="2820" y="185" width="1712" height="2078"/></clipPath><clipPath id="clip10"><rect x="3157" y="238" width="716" height="1908"/></clipPath><clipPath id="clip11"><rect x="2820" y="185" width="1712" height="2078"/></clipPath><clipPath id="clip12"><rect x="3157" y="238" width="716" height="1908"/></clipPath><clipPath id="clip13"><rect x="2820" y="185" width="1712" height="2078"/></clipPath><clipPath id="clip14"><rect x="3157" y="238" width="716" height="1908"/></clipPath><clipPath id="clip15"><rect x="2820" y="185" width="1712" height="2078"/></clipPath><clipPath id="clip16"><rect x="3157" y="238" width="716" height="1908"/></clipPath><clipPath id="clip17"><rect x="2820" y="185" width="1712" height="2078"/></clipPath><clipPath id="clip18"><rect x="3157" y="238" width="716" height="1908"/></clipPath><clipPath id="clip19"><rect x="2820" y="185" width="1712" height="2078"/></clipPath><clipPath id="clip20"><rect x="3157" y="238" width="716" height="1908"/></clipPath><clipPath id="clip21"><rect x="2820" y="185" width="1712" height="2078"/></clipPath><clipPath id="clip22"><rect x="3157" y="238" width="716" height="1908"/></clipPath><clipPath id="clip23"><rect x="2820" y="185" width="1712" height="2078"/></clipPath><clipPath id="clip24"><rect x="2820" y="185" width="1712" height="2078"/></clipPath><clipPath id="clip25"><rect x="2820" y="185" width="1712" height="2078"/></clipPath><clipPath id="clip26"><rect x="2820" y="185" width="1712" height="2078"/></clipPath><clipPath id="clip27"><rect x="2820" y="185" width="1712" height="2078"/></clipPath><clipPath id="clip28"><rect x="2820" y="185" width="1712" height="2078"/></clipPath><clipPath id="clip29"><rect x="2820" y="185" width="1712" height="2078"/></clipPath><clipPath id="clip30"><rect x="2820" y="185" width="1712" height="2078"/></clipPath><clipPath id="clip31"><rect x="2820" y="185" width="1712" height="2078"/></clipPath><clipPath id="clip32"><rect x="2820" y="185" width="1712" height="2078"/></clipPath><clipPath id="clip33"><rect x="2820" y="185" width="1712" height="2078"/></clipPath><clipPath id="clip34"><rect x="2820" y="185" width="1712" height="2078"/></clipPath><clipPath id="clip35"><rect x="2820" y="185" width="1712" height="2078"/></clipPath><clipPath id="clip36"><rect x="2820" y="185" width="1712" height="2078"/></clipPath><clipPath id="clip37"><rect x="2820" y="185" width="1712" height="2078"/></clipPath><clipPath id="clip38"><rect x="2820" y="185" width="1712" height="2078"/></clipPath><clipPath id="clip39"><rect x="2820" y="185" width="1712" height="2078"/></clipPath><clipPath id="clip40"><rect x="2820" y="185" width="1712" height="2078"/></clipPath><clipPath id="clip41"><rect x="2820" y="185" width="1712" height="2078"/></clipPath><clipPath id="clip42"><rect x="2820" y="185" width="1712" height="2078"/></clipPath><clipPath id="clip43"><rect x="2820" y="185" width="1712" height="2078"/></clipPath><clipPath id="clip44"><rect x="2820" y="185" width="1712" height="2078"/></clipPath><clipPath id="clip45"><rect x="2820" y="185" width="1712" height="2078"/></clipPath><clipPath id="clip46"><rect x="2820" y="185" width="1712" height="2078"/></clipPath><clipPath id="clip47"><rect x="2820" y="185" width="1712" height="2078"/></clipPath><clipPath id="clip48"><rect x="2820" y="185" width="1712" height="2078"/></clipPath><clipPath id="clip49"><rect x="2820" y="185" width="1712" height="2078"/></clipPath><clipPath id="clip50"><rect x="2820" y="185" width="1712" height="2078"/></clipPath><clipPath id="clip51"><rect x="2820" y="185" width="1712" height="2078"/></clipPath><clipPath id="clip52"><rect x="2820" y="185" width="1712" height="2078"/></clipPath><clipPath id="clip53"><rect x="2820" y="185" width="1712" height="2078"/></clipPath><clipPath id="clip54"><rect x="2820" y="185" width="1712" height="2078"/></clipPath><clipPath id="clip55"><rect x="2820" y="185" width="1712" height="2078"/></clipPath><clipPath id="clip56"><rect x="2820" y="185" width="1712" height="2078"/></clipPath><clipPath id="clip57"><rect x="2820" y="185" width="1712" height="2078"/></clipPath><clipPath id="clip58"><rect x="2820" y="185" width="1712" height="2078"/></clipPath><clipPath id="clip59"><rect x="2820" y="185" width="1712" height="2078"/></clipPath><clipPath id="clip60"><rect x="2820" y="185" width="1712" height="2078"/></clipPath><clipPath id="clip61"><rect x="2820" y="185" width="1712" height="2078"/></clipPath><clipPath id="clip62"><rect x="2820" y="185" width="1712" height="2078"/></clipPath><clipPath id="clip63"><rect x="2820" y="185" width="1712" height="2078"/></clipPath><clipPath id="clip64"><rect x="2820" y="185" width="1712" height="2078"/></clipPath><clipPath id="clip65"><rect x="2820" y="185" width="1712" height="2078"/></clipPath><clipPath id="clip66"><rect x="2820" y="185" width="1712" height="2078"/></clipPath><clipPath id="clip67"><rect x="2820" y="185" width="1712" height="2078"/></clipPath><clipPath id="clip68"><rect x="2820" y="185" width="1712" height="2078"/></clipPath><clipPath id="clip69"><rect x="2820" y="185" width="1712" height="2078"/></clipPath><clipPath id="clip70"><rect x="2820" y="185" width="1712" height="2078"/></clipPath><clipPath id="clip71"><rect x="2820" y="185" width="1712" height="2078"/></clipPath><clipPath id="clip72"><rect x="2820" y="185" width="1712" height="2078"/></clipPath><clipPath id="clip73"><rect x="2820" y="185" width="1712" height="2078"/></clipPath><clipPath id="clip74"><rect x="2820" y="185" width="1712" height="2078"/></clipPath></defs><g clip-path="url(#clip0)" transform="translate(-2820 -185)"><rect x="2821" y="186" width="1712" height="2078" fill="#FFFFFF"/><g clip-path="url(#clip1)"><path d="M3157.5 1942.56 3870.5 1942.56M3157.5 1741.56 3870.5 1741.56M3157.5 1541.55 3870.5 1541.55M3157.5 1341.54 3870.5 1341.54M3157.5 1140.54 3870.5 1140.54M3157.5 940.531 3870.5 940.531M3157.5 739.524 3870.5 739.524M3157.5 539.518 3870.5 539.518M3157.5 338.5 3870.5 338.5" stroke="#D9D9D9" stroke-width="3.4375" stroke-linejoin="round" stroke-miterlimit="10" fill="none"/></g><g clip-path="url(#clip2)"><path d="M3157.5 2142.5 3870.5 2142.5" stroke="#D9D9D9" stroke-width="3.4375" stroke-linejoin="round" stroke-miterlimit="10" fill="none" fill-rule="evenodd"/></g><g clip-path="url(#clip3)"><path d="M3246.5 1812.56 3424.61 1792.5 3602.62 1792.5 3781.5 2002.5" stroke="#4472C4" stroke-width="9.16667" stroke-linecap="round" stroke-linejoin="round" stroke-miterlimit="10" fill="none"/></g><g clip-path="url(#clip4)"><path d="M3264.98 1830.59 3227.98 1793.59M3246.48 1793.59 3246.48 1830.59M3227.98 1830.59 3264.98 1793.59" stroke="#000000" stroke-width="3.4375" stroke-linejoin="round" stroke-miterlimit="10" fill="none"/><path d="M3442.98 1810.59 3405.98 1773.59M3424.48 1773.59 3424.48 1810.59M3405.98 1810.59 3442.98 1773.59" stroke="#000000" stroke-width="3.4375" stroke-linejoin="round" stroke-miterlimit="10" fill="none"/><path d="M3621.98 1810.59 3584.98 1773.59M3603.48 1773.59 3603.48 1810.59M3584.98 1810.59 3621.98 1773.59" stroke="#000000" stroke-width="3.4375" stroke-linejoin="round" stroke-miterlimit="10" fill="none"/><path d="M3799.98 2020.59 3762.98 1983.59M3781.48 1983.59 3781.48 2020.59M3762.98 2020.59 3799.98 1983.59" stroke="#000000" stroke-width="3.4375" stroke-linejoin="round" stroke-miterlimit="10" fill="none"/></g><g clip-path="url(#clip5)"><path d="M3246.5 1571.5 3424.61 1651.55 3602.62 1611.55 3781.5 1661.5" stroke="#ED7D31" stroke-width="9.16667" stroke-linecap="round" stroke-linejoin="round" stroke-miterlimit="10" fill="none"/></g><g clip-path="url(#clip6)"><path d="M3235.98 1560.59 3258.98 1560.59 3258.98 1583.59 3235.98 1583.59Z" fill="#ED7D31"/><path d="M3413.98 1640.59 3436.98 1640.59 3436.98 1663.59 3413.98 1663.59Z" fill="#ED7D31"/><path d="M3591.98 1600.59 3614.98 1600.59 3614.98 1623.59 3591.98 1623.59Z" fill="#ED7D31"/><path d="M3769.98 1650.59 3792.98 1650.59 3792.98 1673.59 3769.98 1673.59Z" fill="#ED7D31"/></g><g clip-path="url(#clip7)"><path d="M3246.5 1150.5 3424.61 1290.54 3602.62 1200.54 3781.5 1391.5" stroke="#A5A5A5" stroke-width="9.16667" stroke-linecap="round" stroke-linejoin="round" stroke-miterlimit="10" fill="none"/></g><g clip-path="url(#clip8)"><path d="M3232.98 1147.59 3259.98 1147.59 3259.98 1152.59 3232.98 1152.59Z" fill="#A5A5A5"/><path d="M3588.98 1197.59 3615.98 1197.59 3615.98 1202.59 3588.98 1202.59Z" fill="#A5A5A5"/><path d="M3766.98 1387.59 3793.98 1387.59 3793.98 1392.59 3766.98 1392.59Z" fill="#A5A5A5"/></g><g clip-path="url(#clip9)"><path d="M3410.61 1288.54 3436.61 1288.54 3436.61 1292.54 3410.61 1292.54Z" stroke="#7F7F7F" stroke-width="3.4375" stroke-linejoin="round" stroke-miterlimit="10" fill="#A5A5A5"/></g><g clip-path="url(#clip10)"><path d="M3246.5 1311.54 3424.61 980.5 3602.62 1321.5 3781.5 1170.54" stroke="#FFC000" stroke-width="9.16667" stroke-linecap="round" stroke-linejoin="round" stroke-miterlimit="10" fill="none"/></g><g clip-path="url(#clip11)"><path d="M3235.98 1299.59 3258.98 1299.59 3258.98 1322.59 3235.98 1322.59Z" fill="#FFC000"/><path d="M3413.98 968.588 3436.98 968.588 3436.98 991.588 3413.98 991.588Z" fill="#FFC000"/><path d="M3591.98 1309.59 3614.98 1309.59 3614.98 1332.59 3591.98 1332.59Z" fill="#FFC000"/><path d="M3769.98 1159.59 3792.98 1159.59 3792.98 1182.59 3769.98 1182.59Z" fill="#FFC000"/></g><g clip-path="url(#clip12)"><path d="M3246.5 1311.54 3424.61 1381.5 3602.62 1260.54 3781.5 990.5" stroke="#5B9BD5" stroke-width="9.16667" stroke-linecap="round" stroke-linejoin="round" stroke-miterlimit="10" fill="none"/></g><g clip-path="url(#clip13)"><path d="M3246.98 1294.59 3262.98 1310.59 3246.98 1326.59 3230.98 1310.59Z" fill="#5B9BD5"/><path d="M3424.98 1364.59 3440.98 1380.59 3424.98 1396.59 3408.98 1380.59Z" fill="#5B9BD5"/><path d="M3602.98 1244.59 3618.98 1260.59 3602.98 1276.59 3586.98 1260.59Z" fill="#5B9BD5"/><path d="M3780.98 973.589 3796.98 989.589 3780.98 1005.59 3764.98 989.589Z" fill="#5B9BD5"/></g><g clip-path="url(#clip14)"><path d="M3246.5 1451.5 3424.61 1451.5 3602.62 1210.5 3781.5 1260.54" stroke="#70AD47" stroke-width="9.16667" stroke-linecap="round" stroke-linejoin="round" stroke-miterlimit="10" fill="none"/></g><g clip-path="url(#clip15)"><path d="M3235.98 1439.59 3258.98 1439.59 3258.98 1462.59 3235.98 1462.59Z" fill="#70AD47"/><path d="M3413.98 1439.59 3436.98 1439.59 3436.98 1462.59 3413.98 1462.59Z" fill="#70AD47"/><path d="M3591.98 1199.59 3614.98 1199.59 3614.98 1222.59 3591.98 1222.59Z" fill="#70AD47"/><path d="M3769.98 1249.59 3792.98 1249.59 3792.98 1272.59 3769.98 1272.59Z" fill="#70AD47"/></g><g clip-path="url(#clip16)"><path d="M3246.5 1541.55 3424.61 1481.55 3602.62 1611.5 3781.5 1301.5" stroke="#264478" stroke-width="9.16667" stroke-linecap="round" stroke-linejoin="round" stroke-miterlimit="10" fill="none"/></g><g clip-path="url(#clip17)"><path d="M3258.98 1542.09C3258.98 1548.44 3253.84 1553.59 3247.48 1553.59 3241.13 1553.59 3235.98 1548.44 3235.98 1542.09 3235.98 1535.74 3241.13 1530.59 3247.48 1530.59 3253.84 1530.59 3258.98 1535.74 3258.98 1542.09Z" fill="#264478"/><path d="M3436.98 1481.09C3436.98 1487.44 3431.84 1492.59 3425.48 1492.59 3419.13 1492.59 3413.98 1487.44 3413.98 1481.09 3413.98 1474.74 3419.13 1469.59 3425.48 1469.59 3431.84 1469.59 3436.98 1474.74 3436.98 1481.09Z" fill="#264478"/><path d="M3614.98 1612.09C3614.98 1618.44 3609.84 1623.59 3603.48 1623.59 3597.13 1623.59 3591.98 1618.44 3591.98 1612.09 3591.98 1605.74 3597.13 1600.59 3603.48 1600.59 3609.84 1600.59 3614.98 1605.74 3614.98 1612.09Z" fill="#264478"/><path d="M3792.98 1301.09C3792.98 1307.44 3787.84 1312.59 3781.48 1312.59 3775.13 1312.59 3769.98 1307.44 3769.98 1301.09 3769.98 1294.74 3775.13 1289.59 3781.48 1289.59 3787.84 1289.59 3792.98 1294.74 3792.98 1301.09Z" fill="#264478"/></g><g clip-path="url(#clip18)"><path d="M3246.5 409.5 3424.61 759.525 3602.62 659.522 3781.5 840.5" stroke="#9E480E" stroke-width="9.16667" stroke-linecap="round" stroke-linejoin="round" stroke-miterlimit="10" fill="none"/></g><g clip-path="url(#clip19)"><path d="M3265.98 409.088C3265.98 419.305 3257.7 427.588 3247.48 427.588 3237.27 427.588 3228.98 419.305 3228.98 409.088 3228.98 398.871 3237.27 390.588 3247.48 390.588 3257.7 390.588 3265.98 398.871 3265.98 409.088Z" fill="#9E480E"/><path d="M3443.98 760.088C3443.98 770.305 3435.7 778.588 3425.48 778.588 3415.27 778.588 3406.98 770.305 3406.98 760.088 3406.98 749.871 3415.27 741.588 3425.48 741.588 3435.7 741.588 3443.98 749.871 3443.98 760.088Z" fill="#9E480E"/><path d="M3621.98 660.088C3621.98 670.305 3613.7 678.588 3603.48 678.588 3593.27 678.588 3584.98 670.305 3584.98 660.088 3584.98 649.871 3593.27 641.589 3603.48 641.589 3613.7 641.589 3621.98 649.871 3621.98 660.088Z" fill="#9E480E"/><path d="M3799.98 840.088C3799.98 850.305 3791.7 858.588 3781.48 858.588 3771.27 858.588 3762.98 850.305 3762.98 840.088 3762.98 829.871 3771.27 821.589 3781.48 821.589 3791.7 821.589 3799.98 829.871 3799.98 840.088Z" fill="#9E480E"/></g><g clip-path="url(#clip20)"><path d="M3246.5 1411.5 3424.61 1180.5 3602.62 1290.54 3781.5 1351.54" stroke="#636363" stroke-width="9.16667" stroke-linecap="round" stroke-linejoin="round" stroke-miterlimit="10" fill="none"/></g><g clip-path="url(#clip21)"><path d="M3246.98 1399.59 3257.98 1421.59 3235.98 1421.59Z" fill="#636363"/><path d="M3424.98 1169.59 3435.98 1191.59 3413.98 1191.59Z" fill="#636363"/><path d="M3602.98 1279.59 3613.98 1301.59 3591.98 1301.59Z" fill="#636363"/><path d="M3780.98 1339.59 3791.98 1361.59 3769.98 1361.59Z" fill="#636363"/></g><g clip-path="url(#clip22)"><path d="M3246.5 409.5 3246.5 2142.5M3424.61 759.525 3424.61 2142.5M3602.62 659.522 3602.62 2142.5M3781.5 840.528 3781.5 2142.5" stroke="#7F7F7F" stroke-width="3.4375" stroke-linejoin="round" stroke-miterlimit="10" stroke-dasharray="13.75 10.3125" fill="none"/></g><g clip-path="url(#clip23)"><text font-family="Bodoni MT,Bodoni MT_MSFontService,sans-serif" font-weight="400" font-size="50" transform="matrix(1 0 0 1 2977.21 2156)">3.00%</text></g><g clip-path="url(#clip24)"><text font-family="Bodoni MT,Bodoni MT_MSFontService,sans-serif" font-weight="400" font-size="50" transform="matrix(1 0 0 1 2977.21 1956)">5.00%</text></g><g clip-path="url(#clip25)"><text font-family="Bodoni MT,Bodoni MT_MSFontService,sans-serif" font-weight="400" font-size="50" transform="matrix(1 0 0 1 2977.21 1755)">7.00%</text></g><g clip-path="url(#clip26)"><text font-family="Bodoni MT,Bodoni MT_MSFontService,sans-serif" font-weight="400" font-size="50" transform="matrix(1 0 0 1 2977.21 1555)">9.00%</text></g><g clip-path="url(#clip27)"><text font-family="Bodoni MT,Bodoni MT_MSFontService,sans-serif" font-weight="400" font-size="50" transform="matrix(1 0 0 1 2952.48 1354)">11.00%</text></g><g clip-path="url(#clip28)"><text font-family="Bodoni MT,Bodoni MT_MSFontService,sans-serif" font-weight="400" font-size="50" transform="matrix(1 0 0 1 2952.48 1154)">13.00%</text></g><g clip-path="url(#clip29)"><text font-family="Bodoni MT,Bodoni MT_MSFontService,sans-serif" font-weight="400" font-size="50" transform="matrix(1 0 0 1 2952.48 954)">15.00%</text></g><g clip-path="url(#clip30)"><text font-family="Bodoni MT,Bodoni MT_MSFontService,sans-serif" font-weight="400" font-size="50" transform="matrix(1 0 0 1 2952.48 753)">17.00%</text></g><g clip-path="url(#clip31)"><text font-family="Bodoni MT,Bodoni MT_MSFontService,sans-serif" font-weight="400" font-size="50" transform="matrix(1 0 0 1 2952.48 553)">19.00%</text></g><g clip-path="url(#clip32)"><text font-family="Bodoni MT,Bodoni MT_MSFontService,sans-serif" font-weight="400" font-size="50" transform="matrix(1 0 0 1 2952.48 352)">21.00%</text></g><g clip-path="url(#clip33)"><text font-family="Bodoni MT,Bodoni MT_MSFontService,sans-serif" font-weight="400" font-size="50" transform="matrix(1 0 0 1 3181.12 2220)">spring</text></g><g clip-path="url(#clip34)"><text font-family="Bodoni MT,Bodoni MT_MSFontService,sans-serif" font-weight="400" font-size="50" transform="matrix(1 0 0 1 3340.47 2220)">summer</text></g><g clip-path="url(#clip35)"><text font-family="Bodoni MT,Bodoni MT_MSFontService,sans-serif" font-weight="400" font-size="50" transform="matrix(1 0 0 1 3519.75 2220)">autumn</text></g><g clip-path="url(#clip36)"><text font-family="Bodoni MT,Bodoni MT_MSFontService,sans-serif" font-weight="400" font-size="50" transform="matrix(1 0 0 1 3713.29 2220)">winter</text></g><g clip-path="url(#clip37)"><text font-family="Bodoni MT,Bodoni MT_MSFontService,sans-serif" font-weight="400" font-size="50" transform="matrix(6.12323e-17 -1 1 6.12323e-17 2924.27 1966)">RATIO OF PEOPLE TICKING THAT SYMPTOM IN THAT SEASON</text></g><g clip-path="url(#clip38)"><path d="M3942.5 407.5 4030.5 407.5" stroke="#4472C4" stroke-width="9.16667" stroke-linecap="round" stroke-linejoin="round" stroke-miterlimit="10" fill="none" fill-rule="evenodd"/></g><g clip-path="url(#clip39)"><path d="M3999.5 420.5 3972.5 393.5M3986.63 393.5 3986.63 420.5M3972.5 420.5 3999.5 393.5" stroke="#000000" stroke-width="3.4375" stroke-linejoin="round" stroke-miterlimit="10" fill="none"/></g><g clip-path="url(#clip40)"><text font-family="Bodoni MT,Bodoni MT_MSFontService,sans-serif" font-weight="400" font-size="46" transform="matrix(1 0 0 1 4039.44 420)">I am more irritable</text></g><g clip-path="url(#clip41)"><text font-family="Bodoni MT,Bodoni MT_MSFontService,sans-serif" font-weight="400" font-size="46" transform="matrix(1 0 0 1 4039.44 475)">with my family, friends</text></g><g clip-path="url(#clip42)"><text font-family="Bodoni MT,Bodoni MT_MSFontService,sans-serif" font-weight="400" font-size="46" transform="matrix(1 0 0 1 4039.44 530)">and colleagues.</text></g><g clip-path="url(#clip43)"><path d="M3942.5 598.5 4030.5 598.5" stroke="#ED7D31" stroke-width="9.16667" stroke-linecap="round" stroke-linejoin="round" stroke-miterlimit="10" fill="none" fill-rule="evenodd"/></g><g clip-path="url(#clip44)"><path d="M3975 587 3998 587 3998 610 3975 610Z" fill="#ED7D31"/></g><g clip-path="url(#clip45)"><text font-family="Bodoni MT,Bodoni MT_MSFontService,sans-serif" font-weight="400" font-size="46" transform="matrix(1 0 0 1 4039.44 610)">I am more sensitive to</text></g><g clip-path="url(#clip46)"><text font-family="Bodoni MT,Bodoni MT_MSFontService,sans-serif" font-weight="400" font-size="46" transform="matrix(1 0 0 1 4039.44 665)">environmental noises.</text></g><g clip-path="url(#clip47)"><path d="M3942.5 788.5 4030.5 788.5" stroke="#A5A5A5" stroke-width="9.16667" stroke-linecap="round" stroke-linejoin="round" stroke-miterlimit="10" fill="none" fill-rule="evenodd"/></g><g clip-path="url(#clip48)"><path d="M3972 785 3999 785 3999 790 3972 790Z" fill="#A5A5A5"/></g><g clip-path="url(#clip49)"><text font-family="Bodoni MT,Bodoni MT_MSFontService,sans-serif" font-weight="400" font-size="46" transform="matrix(1 0 0 1 4039.44 801)">Because of the tinnitus</text></g><g clip-path="url(#clip50)"><text font-family="Bodoni MT,Bodoni MT_MSFontService,sans-serif" font-weight="400" font-size="46" transform="matrix(1 0 0 1 4039.44 856)">it is difficult to</text></g><g clip-path="url(#clip51)"><text font-family="Bodoni MT,Bodoni MT_MSFontService,sans-serif" font-weight="400" font-size="46" transform="matrix(1 0 0 1 4039.44 911)">concentrate.</text></g><g clip-path="url(#clip52)"><path d="M3942.5 979.5 4030.5 979.5" stroke="#FFC000" stroke-width="9.16667" stroke-linecap="round" stroke-linejoin="round" stroke-miterlimit="10" fill="none" fill-rule="evenodd"/></g><g clip-path="url(#clip53)"><path d="M3975 968 3998 968 3998 991 3975 991Z" fill="#FFC000"/></g><g clip-path="url(#clip54)"><text font-family="Bodoni MT,Bodoni MT_MSFontService,sans-serif" font-weight="400" font-size="46" transform="matrix(1 0 0 1 4039.44 992)">It is difficult to follow</text></g><g clip-path="url(#clip55)"><text font-family="Bodoni MT,Bodoni MT_MSFontService,sans-serif" font-weight="400" font-size="46" transform="matrix(1 0 0 1 4039.44 1047)">a conversation, a piece</text></g><g clip-path="url(#clip56)"><text font-family="Bodoni MT,Bodoni MT_MSFontService,sans-serif" font-weight="400" font-size="46" transform="matrix(1 0 0 1 4039.44 1102)">of music or a film.</text></g><g clip-path="url(#clip57)"><path d="M3942.5 1170.5 4030.5 1170.5" stroke="#5B9BD5" stroke-width="9.16667" stroke-linecap="round" stroke-linejoin="round" stroke-miterlimit="10" fill="none" fill-rule="evenodd"/></g><g clip-path="url(#clip58)"><path d="M3986 1157 3999 1170 3986 1183 3973 1170Z" fill="#5B9BD5"/></g><g clip-path="url(#clip59)"><text font-family="Bodoni MT,Bodoni MT_MSFontService,sans-serif" font-weight="400" font-size="46" transform="matrix(1 0 0 1 4039.44 1183)">It is hard for me to get</text></g><g clip-path="url(#clip60)"><text font-family="Bodoni MT,Bodoni MT_MSFontService,sans-serif" font-weight="400" font-size="46" transform="matrix(1 0 0 1 4039.44 1238)">to sleep.</text></g><g clip-path="url(#clip61)"><path d="M3942.5 1361.5 4030.5 1361.5" stroke="#70AD47" stroke-width="9.16667" stroke-linecap="round" stroke-linejoin="round" stroke-miterlimit="10" fill="none" fill-rule="evenodd"/></g><g clip-path="url(#clip62)"><path d="M3975 1350 3998 1350 3998 1373 3975 1373Z" fill="#70AD47"/></g><g clip-path="url(#clip63)"><text font-family="Bodoni MT,Bodoni MT_MSFontService,sans-serif" font-weight="400" font-size="46" transform="matrix(1 0 0 1 4039.44 1373)">I am feeling depressed.</text></g><g clip-path="url(#clip64)"><path d="M3942.5 1551.5 4030.5 1551.5" stroke="#264478" stroke-width="9.16667" stroke-linecap="round" stroke-linejoin="round" stroke-miterlimit="10" fill="none" fill-rule="evenodd"/></g><g clip-path="url(#clip65)"><path d="M3998 1551.5C3998 1557.85 3992.85 1563 3986.5 1563 3980.15 1563 3975 1557.85 3975 1551.5 3975 1545.15 3980.15 1540 3986.5 1540 3992.85 1540 3998 1545.15 3998 1551.5Z" fill="#264478"/></g><g clip-path="url(#clip66)"><text font-family="Bodoni MT,Bodoni MT_MSFontService,sans-serif" font-weight="400" font-size="46" transform="matrix(1 0 0 1 4039.44 1564)">I don't have any of</text></g><g clip-path="url(#clip67)"><text font-family="Bodoni MT,Bodoni MT_MSFontService,sans-serif" font-weight="400" font-size="46" transform="matrix(1 0 0 1 4039.44 1619)">these symptoms.</text></g><g clip-path="url(#clip68)"><path d="M3942.5 1742.5 4030.5 1742.5" stroke="#9E480E" stroke-width="9.16667" stroke-linecap="round" stroke-linejoin="round" stroke-miterlimit="10" fill="none" fill-rule="evenodd"/></g><g clip-path="url(#clip69)"><path d="M3999 1741.5C3999 1748.96 3992.96 1755 3985.5 1755 3978.04 1755 3972 1748.96 3972 1741.5 3972 1734.04 3978.04 1728 3985.5 1728 3992.96 1728 3999 1734.04 3999 1741.5Z" fill="#9E480E"/></g><g clip-path="url(#clip70)"><text font-family="Bodoni MT,Bodoni MT_MSFontService,sans-serif" font-weight="400" font-size="46" transform="matrix(1 0 0 1 4039.44 1755)">I find it harder to</text></g><g clip-path="url(#clip71)"><text font-family="Bodoni MT,Bodoni MT_MSFontService,sans-serif" font-weight="400" font-size="46" transform="matrix(1 0 0 1 4039.44 1810)">relax.</text></g><g clip-path="url(#clip72)"><path d="M3942.5 1933.5 4030.5 1933.5" stroke="#636363" stroke-width="9.16667" stroke-linecap="round" stroke-linejoin="round" stroke-miterlimit="10" fill="none" fill-rule="evenodd"/></g><g clip-path="url(#clip73)"><path d="M3986 1922 3997 1944 3975 1944Z" fill="#636363"/></g><g clip-path="url(#clip74)"><text font-family="Bodoni MT,Bodoni MT_MSFontService,sans-serif" font-weight="400" font-size="46" transform="matrix(1 0 0 1 4039.44 1945)">I have strong worries.</text></g><rect x="2821.5" y="186.5" width="1712" height="2078" stroke="#D9D9D9" stroke-width="3.4375" stroke-linejoin="round" stroke-miterlimit="10" fill="none"/></g></svg>